<?xml version="1.0" encoding="utf-8" ?>
<svg baseProfile="full" height="129" id="svgcontent_0" version="1.1" viewBox="0 0 161 129" width="161" xmlns="http://www.w3.org/2000/svg" xmlns:ev="http://www.w3.org/2001/xml-events" xmlns:xlink="http://www.w3.org/1999/xlink"><defs><style type="text/css"><![CDATA[.pinname {font-size:12px; font-style:normal; font-variant:normal; font-weight:500; font-stretch:normal; text-align:center; text-anchor:end; font-family:Helvetica} .wirename {font-size:12px; font-style:normal; font-variant:normal; font-weight:500; font-stretch:normal; text-align:center; text-anchor:start; font-family:Helvetica} .wirename:hover {fill:blue} .gate {color:#000; fill:#ffc; fill-opacity: 1;stroke:#000; stroke-width:1; stroke-opacity:1} .gate:hover {fill:red !important; } .wire {fill:none; stroke:#000; stroke-width:1; stroke-opacity:1} .grid {fill:#fff; fill-opacity:1; stroke:none}]]></style></defs><g transform="translate(0.5,0.5)"><g><rect class="grid" height="1" width="1" x="0" y="0" /><rect class="grid" height="1" width="1" x="0" y="0" /><rect class="grid" height="1" width="1" x="0" y="0" /><rect class="grid" height="1" width="1" x="0" y="0" /><rect class="grid" height="1" width="1" x="0" y="0" /><rect class="grid" height="1" width="1" x="0" y="0" /><rect class="grid" height="1" width="1" x="0" y="0" /><rect class="grid" height="1" width="1" x="0" y="0" /><rect class="grid" height="1" width="1" x="0" y="0" /><rect class="grid" height="1" width="1" x="0" y="0" /><rect class="grid" height="1" width="1" x="0" y="0" /><rect class="grid" height="1" width="1" x="0" y="0" /><rect class="grid" height="1" width="1" x="0" y="0" /><rect class="grid" height="1" width="1" x="0" y="0" /><rect class="grid" height="1" width="1" x="0" y="0" /><rect class="grid" height="1" width="1" x="0" y="0" /><rect class="grid" height="1" width="1" x="0" y="0" /><rect class="grid" height="1" width="1" x="0" y="0" /><rect class="grid" height="1" width="1" x="0" y="0" /><rect class="grid" height="1" width="1" x="0" y="0" /><rect class="grid" height="1" width="1" x="0" y="0" /><rect class="grid" height="1" width="1" x="0" y="0" /><rect class="grid" height="1" width="1" x="0" y="0" /><rect class="grid" height="1" width="1" x="0" y="0" /><rect class="grid" height="1" width="1" x="0" y="0" /><rect class="grid" height="1" width="1" x="0" y="0" /><rect class="grid" height="1" width="1" x="0" y="0" /><rect class="grid" height="1" width="1" x="0" y="0" /><rect class="grid" height="1" width="1" x="0" y="0" /><rect class="grid" height="1" width="1" x="0" y="0" /><rect class="grid" height="1" width="1" x="0" y="0" /><rect class="grid" height="1" width="1" x="0" y="0" /><rect class="grid" height="1" width="1" x="0" y="0" /><rect class="grid" height="1" width="1" x="0" y="0" /><rect class="grid" height="1" width="1" x="0" y="0" /><rect class="grid" height="1" width="1" x="0" y="0" /><rect class="grid" height="1" width="1" x="0" y="0" /><rect class="grid" height="1" width="1" x="0" y="0" /><rect class="grid" height="1" width="1" x="0" y="0" /><rect class="grid" height="1" width="1" x="0" y="0" /><rect class="grid" height="1" width="1" x="0" y="0" /><rect class="grid" height="1" width="1" x="0" y="0" /><rect class="grid" height="1" width="1" x="0" y="0" /><rect class="grid" height="1" width="1" x="0" y="0" /><rect class="grid" height="1" width="1" x="0" y="0" /><rect class="grid" height="1" width="1" x="0" y="0" /><rect class="grid" height="1" width="1" x="0" y="0" /><rect class="grid" height="1" width="1" x="0" y="0" /><rect class="grid" height="1" width="1" x="0" y="0" /><rect class="grid" height="1" width="1" x="0" y="0" /><rect class="grid" height="1" width="1" x="0" y="0" /><rect class="grid" height="1" width="1" x="0" y="0" /><rect class="grid" height="1" width="1" x="0" y="0" /><rect class="grid" height="1" width="1" x="0" y="0" /><rect class="grid" height="1" width="1" x="0" y="0" /><rect class="grid" height="1" width="1" x="0" y="0" /><rect class="grid" height="1" width="1" x="0" y="0" /><rect class="grid" height="1" width="1" x="0" y="0" /><rect class="grid" height="1" width="1" x="0" y="0" /><rect class="grid" height="1" width="1" x="0" y="0" /><rect class="grid" height="1" width="1" x="0" y="0" /><rect class="grid" height="1" width="1" x="0" y="0" /><rect class="grid" height="1" width="1" x="0" y="0" /><rect class="grid" height="1" width="1" x="0" y="0" /><rect class="grid" height="1" width="1" x="0" y="0" /><rect class="grid" height="1" width="1" x="0" y="0" /><rect class="grid" height="1" width="1" x="0" y="0" /><rect class="grid" height="1" width="1" x="0" y="0" /><rect class="grid" height="1" width="1" x="0" y="0" /><rect class="grid" height="1" width="1" x="0" y="0" /><rect class="grid" height="1" width="1" x="0" y="0" /><rect class="grid" height="1" width="1" x="0" y="0" /><rect class="grid" height="1" width="1" x="0" y="0" /><rect class="grid" height="1" width="1" x="0" y="0" /><rect class="grid" height="1" width="1" x="0" y="0" /><rect class="grid" height="1" width="1" x="0" y="0" /><rect class="grid" height="1" width="1" x="0" y="0" /><rect class="grid" height="1" width="1" x="0" y="0" /><rect class="grid" height="1" width="1" x="0" y="0" /><rect class="grid" height="1" width="1" x="0" y="0" /><rect class="grid" height="1" width="1" x="0" y="0" /><rect class="grid" height="1" width="1" x="0" y="0" /><rect class="grid" height="1" width="1" x="0" y="0" /><rect class="grid" height="1" width="1" x="0" y="0" /><rect class="grid" height="1" width="1" x="0" y="0" /><rect class="grid" height="1" width="1" x="0" y="0" /><rect class="grid" height="1" width="1" x="0" y="0" /><rect class="grid" height="1" width="1" x="0" y="0" /><rect class="grid" height="1" width="1" x="0" y="0" /><rect class="grid" height="1" width="1" x="0" y="0" /><rect class="grid" height="1" width="1" x="0" y="0" /><rect class="grid" height="1" width="1" x="0" y="0" /><rect class="grid" height="1" width="1" x="0" y="0" /><rect class="grid" height="1" width="1" x="0" y="0" /><rect class="grid" height="1" width="1" x="0" y="0" /><rect class="grid" height="1" width="1" x="0" y="0" /><rect class="grid" height="1" width="1" x="0" y="0" /><rect class="grid" height="1" width="1" x="0" y="0" /><rect class="grid" height="1" width="1" x="0" y="0" /><rect class="grid" height="1" width="1" x="0" y="0" /><rect class="grid" height="1" width="1" x="0" y="0" /><rect class="grid" height="1" width="1" x="0" y="0" /><rect class="grid" height="1" width="1" x="0" y="0" /><rect class="grid" height="1" width="1" x="0" y="0" /><rect class="grid" height="1" width="1" x="0" y="0" /><rect class="grid" height="1" width="1" x="0" y="0" /><rect class="grid" height="1" width="1" x="0" y="0" /><rect class="grid" height="1" width="1" x="0" y="0" /><rect class="grid" height="1" width="1" x="0" y="0" /><rect class="grid" height="1" width="1" x="0" y="0" /><rect class="grid" height="1" width="1" x="0" y="0" /><rect class="grid" height="1" width="1" x="0" y="0" /><rect class="grid" height="1" width="1" x="0" y="0" /><rect class="grid" height="1" width="1" x="0" y="0" /><rect class="grid" height="1" width="1" x="0" y="0" /><rect class="grid" height="1" width="1" x="0" y="0" /><rect class="grid" height="1" width="1" x="0" y="0" /><rect class="grid" height="1" width="1" x="0" y="0" /><rect class="grid" height="1" width="1" x="0" y="0" /><rect class="grid" height="1" width="1" x="0" y="0" /><rect class="grid" height="1" width="1" x="0" y="0" /><rect class="grid" height="1" width="1" x="0" y="0" /><rect class="grid" height="1" width="1" x="0" y="0" /><rect class="grid" height="1" width="1" x="0" y="0" /><rect class="grid" height="1" width="1" x="0" y="0" /><rect class="grid" height="1" width="1" x="0" y="0" /><rect class="grid" height="1" width="1" x="0" y="0" /><rect class="grid" height="1" width="1" x="0" y="0" /><rect class="grid" height="1" width="1" x="0" y="0" /><rect class="grid" height="1" width="1" x="0" y="0" /><rect class="grid" height="1" width="1" x="0" y="0" /><rect class="grid" height="1" width="1" x="0" y="0" /><rect class="grid" height="1" width="1" x="0" y="0" /><rect class="grid" height="1" width="1" x="0" y="0" /><rect class="grid" height="1" width="1" x="0" y="0" /><rect class="grid" height="1" width="1" x="0" y="0" /><rect class="grid" height="1" width="1" x="0" y="0" /><rect class="grid" height="1" width="1" x="0" y="0" /><rect class="grid" height="1" width="1" x="0" y="0" /><rect class="grid" height="1" width="1" x="0" y="0" /><rect class="grid" height="1" width="1" x="0" y="0" /><rect class="grid" height="1" width="1" x="0" y="0" /><rect class="grid" height="1" width="1" x="0" y="0" /><rect class="grid" height="1" width="1" x="0" y="0" /><rect class="grid" height="1" width="1" x="0" y="0" /><rect class="grid" height="1" width="1" x="0" y="0" /><rect class="grid" height="1" width="1" x="0" y="0" /><rect class="grid" height="1" width="1" x="0" y="0" /><rect class="grid" height="1" width="1" x="0" y="0" /><rect class="grid" height="1" width="1" x="0" y="0" /><rect class="grid" height="1" width="1" x="0" y="0" /><rect class="grid" height="1" width="1" x="0" y="0" /><rect class="grid" height="1" width="1" x="0" y="0" /><rect class="grid" height="1" width="1" x="0" y="0" /><rect class="grid" height="1" width="1" x="0" y="0" /><rect class="grid" height="1" width="1" x="0" y="0" /><rect class="grid" height="1" width="1" x="0" y="0" /><rect class="grid" height="1" width="1" x="0" y="0" /><rect class="grid" height="1" width="1" x="0" y="0" /><rect class="grid" height="1" width="1" x="0" y="0" /><rect class="grid" height="1" width="1" x="0" y="0" /><rect class="grid" height="1" width="1" x="0" y="0" /><rect class="grid" height="1" width="1" x="0" y="0" /><rect class="grid" height="1" width="1" x="0" y="0" /><rect class="grid" height="1" width="1" x="0" y="0" /><rect class="grid" height="1" width="1" x="0" y="0" /><rect class="grid" height="1" width="1" x="0" y="0" /><rect class="grid" height="1" width="1" x="0" y="0" /><rect class="grid" height="1" width="1" x="0" y="0" /><rect class="grid" height="1" width="1" x="0" y="0" /><rect class="grid" height="1" width="1" x="0" y="0" /><rect class="grid" height="1" width="1" x="0" y="0" /><rect class="grid" height="1" width="1" x="0" y="0" /><rect class="grid" height="1" width="1" x="0" y="0" /><rect class="grid" height="1" width="1" x="0" y="0" /><rect class="grid" height="1" width="1" x="0" y="0" /><rect class="grid" height="1" width="1" x="0" y="0" /><rect class="grid" height="1" width="1" x="0" y="0" /><rect class="grid" height="1" width="1" x="0" y="0" /><rect class="grid" height="1" width="1" x="0" y="0" /><rect class="grid" height="1" width="1" x="0" y="0" /><rect class="grid" height="1" width="1" x="0" y="0" /><rect class="grid" height="1" width="1" x="0" y="0" /><rect class="grid" height="1" width="1" x="0" y="0" /><rect class="grid" height="1" width="1" x="0" y="0" /><rect class="grid" height="1" width="1" x="0" y="0" /><rect class="grid" height="1" width="1" x="0" y="0" /><rect class="grid" height="1" width="1" x="0" y="0" /><rect class="grid" height="1" width="1" x="0" y="0" /><rect class="grid" height="1" width="1" x="0" y="0" /><rect class="grid" height="1" width="1" x="0" y="0" /><rect class="grid" height="1" width="1" x="0" y="0" /><rect class="grid" height="1" width="1" x="0" y="0" /><rect class="grid" height="1" width="1" x="0" y="0" /><rect class="grid" height="1" width="1" x="0" y="0" /><rect class="grid" height="1" width="1" x="0" y="0" /><rect class="grid" height="1" width="1" x="0" y="0" /><rect class="grid" height="1" width="1" x="0" y="0" /><rect class="grid" height="1" width="1" x="0" y="0" /><rect class="grid" height="1" width="1" x="0" y="0" /><rect class="grid" height="1" width="1" x="0" y="0" /><rect class="grid" height="1" width="1" x="0" y="0" /><rect class="grid" height="1" width="1" x="0" y="0" /><rect class="grid" height="1" width="1" x="0" y="0" /><rect class="grid" height="1" width="1" x="0" y="0" /><rect class="grid" height="1" width="1" x="0" y="0" /><rect class="grid" height="1" width="1" x="0" y="0" /><rect class="grid" height="1" width="1" x="0" y="0" /><rect class="grid" height="1" width="1" x="0" y="0" /><rect class="grid" height="1" width="1" x="0" y="0" /><rect class="grid" height="1" width="1" x="0" y="0" /><rect class="grid" height="1" width="1" x="0" y="0" /><rect class="grid" height="1" width="1" x="0" y="0" /><rect class="grid" height="1" width="1" x="0" y="0" /><rect class="grid" height="1" width="1" x="0" y="0" /><rect class="grid" height="1" width="1" x="0" y="0" /><rect class="grid" height="1" width="1" x="0" y="0" /><rect class="grid" height="1" width="1" x="0" y="0" /><rect class="grid" height="1" width="1" x="0" y="0" /><rect class="grid" height="1" width="1" x="0" y="0" /><rect class="grid" height="1" width="1" x="0" y="0" /><rect class="grid" height="1" width="1" x="0" y="0" /><rect class="grid" height="1" width="1" x="0" y="0" /><rect class="grid" height="1" width="1" x="0" y="0" /><rect class="grid" height="1" width="1" x="0" y="0" /><rect class="grid" height="1" width="1" x="0" y="0" /><rect class="grid" height="1" width="1" x="0" y="0" /><rect class="grid" height="1" width="1" x="0" y="0" /><rect class="grid" height="1" width="1" x="0" y="0" /><rect class="grid" height="1" width="1" x="0" y="0" /><rect class="grid" height="1" width="1" x="0" y="0" /><rect class="grid" height="1" width="1" x="0" y="0" /><rect class="grid" height="1" width="1" x="0" y="0" /><rect class="grid" height="1" width="1" x="0" y="0" /><rect class="grid" height="1" width="1" x="0" y="0" /><rect class="grid" height="1" width="1" x="0" y="0" /><rect class="grid" height="1" width="1" x="0" y="0" /><rect class="grid" height="1" width="1" x="0" y="0" /><rect class="grid" height="1" width="1" x="0" y="0" /><rect class="grid" height="1" width="1" x="0" y="0" /><rect class="grid" height="1" width="1" x="0" y="0" /><rect class="grid" height="1" width="1" x="0" y="0" /><rect class="grid" height="1" width="1" x="0" y="0" /><rect class="grid" height="1" width="1" x="0" y="0" /><rect class="grid" height="1" width="1" x="0" y="0" /><rect class="grid" height="1" width="1" x="0" y="0" /><rect class="grid" height="1" width="1" x="0" y="0" /><rect class="grid" height="1" width="1" x="0" y="0" /><rect class="grid" height="1" width="1" x="0" y="0" /><rect class="grid" height="1" width="1" x="0" y="0" /><rect class="grid" height="1" width="1" x="0" y="0" /><rect class="grid" height="1" width="1" x="0" y="0" /><rect class="grid" height="1" width="1" x="0" y="0" /><rect class="grid" height="1" width="1" x="0" y="0" /><rect class="grid" height="1" width="1" x="0" y="0" /><rect class="grid" height="1" width="1" x="0" y="0" /><rect class="grid" height="1" width="1" x="0" y="0" /><rect class="grid" height="1" width="1" x="0" y="0" /><rect class="grid" height="1" width="1" x="0" y="0" /><rect class="grid" height="1" width="1" x="0" y="0" /><rect class="grid" height="1" width="1" x="0" y="0" /><rect class="grid" height="1" width="1" x="0" y="0" /><rect class="grid" height="1" width="1" x="0" y="0" /><rect class="grid" height="1" width="1" x="0" y="0" /><rect class="grid" height="1" width="1" x="0" y="0" /><rect class="grid" height="1" width="1" x="0" y="0" /><rect class="grid" height="1" width="1" x="0" y="0" /><rect class="grid" height="1" width="1" x="0" y="0" /><rect class="grid" height="1" width="1" x="0" y="0" /><rect class="grid" height="1" width="1" x="0" y="0" /><rect class="grid" height="1" width="1" x="0" y="0" /><rect class="grid" height="1" width="1" x="0" y="0" /><rect class="grid" height="1" width="1" x="0" y="0" /><rect class="grid" height="1" width="1" x="0" y="0" /><rect class="grid" height="1" width="1" x="0" y="0" /><rect class="grid" height="1" width="1" x="0" y="0" /><rect class="grid" height="1" width="1" x="0" y="0" /><rect class="grid" height="1" width="1" x="0" y="0" /><rect class="grid" height="1" width="1" x="0" y="0" /><rect class="grid" height="1" width="1" x="0" y="0" /><rect class="grid" height="1" width="1" x="0" y="0" /><rect class="grid" height="1" width="1" x="0" y="0" /><rect class="grid" height="1" width="1" x="0" y="0" /><rect class="grid" height="1" width="1" x="0" y="0" /><rect class="grid" height="1" width="1" x="0" y="0" /><rect class="grid" height="1" width="1" x="0" y="0" /><rect class="grid" height="1" width="1" x="0" y="0" /><rect class="grid" height="1" width="1" x="0" y="0" /><rect class="grid" height="1" width="1" x="0" y="0" /><rect class="grid" height="1" width="1" x="0" y="0" /><rect class="grid" height="1" width="1" x="0" y="0" /><rect class="grid" height="1" width="1" x="0" y="0" /><rect class="grid" height="1" width="1" x="0" y="0" /><rect class="grid" height="1" width="1" x="0" y="0" /><rect class="grid" height="1" width="1" x="0" y="0" /><rect class="grid" height="1" width="1" x="0" y="0" /><rect class="grid" height="1" width="1" x="0" y="0" /><rect class="grid" height="1" width="1" x="0" y="0" /><rect class="grid" height="1" width="1" x="0" y="0" /><rect class="grid" height="1" width="1" x="0" y="0" /><rect class="grid" height="1" width="1" x="0" y="0" /><rect class="grid" height="1" width="1" x="0" y="0" /><rect class="grid" height="1" width="1" x="0" y="0" /><rect class="grid" height="1" width="1" x="0" y="0" /><rect class="grid" height="1" width="1" x="0" y="0" /><rect class="grid" height="1" width="1" x="0" y="0" /><rect class="grid" height="1" width="1" x="0" y="0" /><rect class="grid" height="1" width="1" x="0" y="0" /><rect class="grid" height="1" width="1" x="0" y="0" /><rect class="grid" height="1" width="1" x="0" y="0" /><rect class="grid" height="1" width="1" x="0" y="0" /><rect class="grid" height="1" width="1" x="0" y="0" /><rect class="grid" height="1" width="1" x="0" y="0" /><rect class="grid" height="1" width="1" x="0" y="0" /><rect class="grid" height="1" width="1" x="0" y="0" /><rect class="grid" height="1" width="1" x="0" y="0" /><rect class="grid" height="1" width="1" x="0" y="0" /><rect class="grid" height="1" width="1" x="0" y="0" /><rect class="grid" height="1" width="1" x="0" y="0" /><rect class="grid" height="1" width="1" x="0" y="0" /><rect class="grid" height="1" width="1" x="0" y="0" /><rect class="grid" height="1" width="1" x="0" y="0" /><rect class="grid" height="1" width="1" x="0" y="0" /><rect class="grid" height="1" width="1" x="0" y="0" /><rect class="grid" height="1" width="1" x="0" y="0" /><rect class="grid" height="1" width="1" x="0" y="0" /><rect class="grid" height="1" width="1" x="0" y="0" /><rect class="grid" height="1" width="1" x="0" y="0" /><rect class="grid" height="1" width="1" x="0" y="0" /><rect class="grid" height="1" width="1" x="0" y="0" /><rect class="grid" height="1" width="1" x="0" y="0" /><rect class="grid" height="1" width="1" x="0" y="0" /><rect class="grid" height="1" width="1" x="0" y="0" /><rect class="grid" height="1" width="1" x="0" y="0" /><rect class="grid" height="1" width="1" x="0" y="0" /><rect class="grid" height="1" width="1" x="0" y="0" /><rect class="grid" height="1" width="1" x="0" y="0" /><rect class="grid" height="1" width="1" x="0" y="0" /><rect class="grid" height="1" width="1" x="0" y="0" /><rect class="grid" height="1" width="1" x="0" y="0" /><rect class="grid" height="1" width="1" x="0" y="0" /><rect class="grid" height="1" width="1" x="0" y="0" /><rect class="grid" height="1" width="1" x="0" y="0" /><rect class="grid" height="1" width="1" x="0" y="0" /><rect class="grid" height="1" width="1" x="0" y="0" /><rect class="grid" height="1" width="1" x="0" y="0" /><rect class="grid" height="1" width="1" x="0" y="0" /><rect class="grid" height="1" width="1" x="0" y="0" /><rect class="grid" height="1" width="1" x="0" y="0" /><rect class="grid" height="1" width="1" x="0" y="0" /><rect class="grid" height="1" width="1" x="0" y="0" /><rect class="grid" height="1" width="1" x="0" y="0" /><rect class="grid" height="1" width="1" x="0" y="0" /><rect class="grid" height="1" width="1" x="0" y="0" /><rect class="grid" height="1" width="1" x="0" y="0" /><rect class="grid" height="1" width="1" x="0" y="0" /><rect class="grid" height="1" width="1" x="0" y="0" /><rect class="grid" height="1" width="1" x="0" y="0" /><rect class="grid" height="1" width="1" x="0" y="0" /><rect class="grid" height="1" width="1" x="0" y="0" /><rect class="grid" height="1" width="1" x="0" y="0" /><rect class="grid" height="1" width="1" x="0" y="0" /><rect class="grid" height="1" width="1" x="0" y="0" /><rect class="grid" height="1" width="1" x="0" y="0" /><rect class="grid" height="1" width="1" x="0" y="0" /><rect class="grid" height="1" width="1" x="0" y="0" /><rect class="grid" height="1" width="1" x="0" y="0" /><rect class="grid" height="1" width="1" x="0" y="0" /><rect class="grid" height="1" width="1" x="0" y="0" /><rect class="grid" height="1" width="1" x="0" y="0" /><rect class="grid" height="1" width="1" x="0" y="0" /><rect class="grid" height="1" width="1" x="0" y="0" /><rect class="grid" height="1" width="1" x="0" y="0" /><rect class="grid" height="1" width="1" x="0" y="0" /><rect class="grid" height="1" width="1" x="0" y="0" /><rect class="grid" height="1" width="1" x="0" y="0" /><rect class="grid" height="1" width="1" x="0" y="0" /><rect class="grid" height="1" width="1" x="0" y="0" /></g><g><g><g transform="translate(16,0)"><path class="wire" d="M 96,96 96,96" /></g><path class="wire" d="m 96,96 16,0" /><g transform="translate(128,96)"><title>H</title><text><tspan class="wirename" x="-14" y="4">H</tspan></text></g></g><g><g><g transform="translate(16,0)"><path class="wire" d="M 64,80 64,112" /></g><path class="wire" d="m 64,80 16,0" /><path class="wire" d="m 64,96 16,0" /><path class="wire" d="m 64,112 16,0" /><g transform="translate(96,96)"><title>|</title><path class="gate" d="m -18,-10 4,0 c 6,0 12,5 14,10 -2,5 -8,10 -14,10 l -4,0 c 2.5,-5 2.5,-15 0,-20 z" /></g></g><g><g transform="translate(64,80)"><title>C</title><path d="M 2,0 a 2,2 0 1 1 -4,0 2,2 0 1 1 4,0 z" /><text><tspan class="pinname" x="-4" y="4">C</tspan></text></g></g><g><g transform="translate(64,96)"><title>F</title><path d="M 2,0 a 2,2 0 1 1 -4,0 2,2 0 1 1 4,0 z" /><text><tspan class="pinname" x="-4" y="4">F</tspan></text></g></g><g><g transform="translate(64,112)"><title>G</title><path d="M 2,0 a 2,2 0 1 1 -4,0 2,2 0 1 1 4,0 z" /><text><tspan class="pinname" x="-4" y="4">G</tspan></text></g></g></g></g></g></svg>