<?xml version="1.0" standalone="no"?>
<!DOCTYPE svg PUBLIC "-//W3C//DTD SVG 1.1//EN" "http://www.w3.org/Graphics/SVG/1.1/DTD/svg11.dtd">
<!-- Created with WaveDrom -->
<svg xmlns="http://www.w3.org/2000/svg" xmlns:xlink="http://www.w3.org/1999/xlink" id="svgcontent_0" viewBox="0 0 225 401" width="225" height="401" class="WaveDrom"><style>.pinname {font-size:12px; font-style:normal; font-variant:normal; font-weight:500; font-stretch:normal; text-align:center; text-anchor:end; font-family:Helvetica} .wirename {font-size:12px; font-style:normal; font-variant:normal; font-weight:500; font-stretch:normal; text-align:center; text-anchor:start; font-family:Helvetica} .wirename:hover {fill:blue} .gate {color:#000; fill:#ffc; fill-opacity: 1;stroke:#000; stroke-width:1; stroke-opacity:1} .gate:hover {fill:red !important; } .wire {fill:none; stroke:#000; stroke-width:1; stroke-opacity:1} .grid {fill:#fff; fill-opacity:1; stroke:none}</style><g transform="translate(0.5, 0.5)"><g><g><g><g transform="translate(16,0)"><path d="M160,40 160,40" class="wire"/></g><g><path d="m160,40 16,0" class="wire"/></g><g transform="translate(192,40)"><title><tspan>A=B</tspan></title><text x="-14" y="4" class="wirename"><tspan>A=B</tspan></text></g></g><g><g><g transform="translate(16,0)"><path d="M128,24 128,56" class="wire"/></g><g><path d="m128,24 16,0" class="wire"/></g><g><path d="m128,56 16,0" class="wire"/></g><g transform="translate(160,40)"><title><tspan>&amp;</tspan></title><path class="gate" d="m -16,-10 5,0 c 6,0 11,4 11,10 0,6 -5,10 -11,10 l -5,0 z"/></g></g><g><g><g transform="translate(16,0)"><path d="M96,16 96,32" class="wire"/></g><g><path d="m96,16 16,0" class="wire"/></g><g><path d="m96,32 16,0" class="wire"/></g><g transform="translate(128,24)"><title><tspan>^</tspan></title><path class="gate" d="m -21,-10 c 1,3 2,6 2,10 m 0,0 c 0,4 -1,7 -2,10 m 3,-20 4,0 c 6,0 12,5 14,10 -2,5 -8,10 -14,10 l -4,0 c 1,-3 2,-6 2,-10 0,-4 -1,-7 -2,-10 z"/></g></g><g><g transform="translate(96,16)"><title><tspan>A0</tspan></title><path d="M 2,0 a 2,2 0 1 1 -4,0 2,2 0 1 1 4,0 z"/><text x="-4" y="4" class="pinname"><tspan>A0</tspan></text></g></g><g><g transform="translate(96,32)"><title><tspan>B0</tspan></title><path d="M 2,0 a 2,2 0 1 1 -4,0 2,2 0 1 1 4,0 z"/><text x="-4" y="4" class="pinname"><tspan>B0</tspan></text></g></g></g><g><g><g transform="translate(16,0)"><path d="M96,48 96,64" class="wire"/></g><g><path d="m96,48 16,0" class="wire"/></g><g><path d="m96,64 16,0" class="wire"/></g><g transform="translate(128,56)"><title><tspan>^</tspan></title><path class="gate" d="m -21,-10 c 1,3 2,6 2,10 m 0,0 c 0,4 -1,7 -2,10 m 3,-20 4,0 c 6,0 12,5 14,10 -2,5 -8,10 -14,10 l -4,0 c 1,-3 2,-6 2,-10 0,-4 -1,-7 -2,-10 z"/></g></g><g><g transform="translate(96,48)"><title><tspan>A1</tspan></title><path d="M 2,0 a 2,2 0 1 1 -4,0 2,2 0 1 1 4,0 z"/><text x="-4" y="4" class="pinname"><tspan>A1</tspan></text></g></g><g><g transform="translate(96,64)"><title><tspan>B1</tspan></title><path d="M 2,0 a 2,2 0 1 1 -4,0 2,2 0 1 1 4,0 z"/><text x="-4" y="4" class="pinname"><tspan>B1</tspan></text></g></g></g></g></g><g><g><g transform="translate(16,0)"><path d="M160,152 160,152" class="wire"/></g><g><path d="m160,152 16,0" class="wire"/></g><g transform="translate(192,152)"><title><tspan>A&gt;B</tspan></title><text x="-14" y="4" class="wirename"><tspan>A&gt;B</tspan></text></g></g><g><g><g transform="translate(16,0)"><path d="M128,88 128,200" class="wire"/></g><g><path d="m128,88 16,0" class="wire"/></g><g><path d="m128,136 16,0" class="wire"/></g><g><path d="m128,200 16,0" class="wire"/></g><g transform="translate(160,152)"><title><tspan>|</tspan></title><path class="gate" d="m -18,-10 4,0 c 6,0 12,5 14,10 -2,5 -8,10 -14,10 l -4,0 c 2.5,-5 2.5,-15 0,-20 z"/></g></g><g><g><g transform="translate(16,0)"><path d="M96,80 96,96" class="wire"/></g><g><path d="m96,80 16,0" class="wire"/></g><g><path d="m96,96 16,0" class="wire"/></g><g transform="translate(128,88)"><title><tspan>&amp;</tspan></title><path class="gate" d="m -16,-10 5,0 c 6,0 11,4 11,10 0,6 -5,10 -11,10 l -5,0 z"/></g></g><g><g transform="translate(96,80)"><title><tspan>A1</tspan></title><path d="M 2,0 a 2,2 0 1 1 -4,0 2,2 0 1 1 4,0 z"/><text x="-4" y="4" class="pinname"><tspan>A1</tspan></text></g></g><g><g><g transform="translate(16,0)"><path d="M64,96 64,96" class="wire"/></g><g><path d="m64,96 16,0" class="wire"/></g><g transform="translate(96,96)"><title><tspan>~</tspan></title><path class="gate" d="M -11,-6 -11,6 0,0 z m -5,6 5,0M 4,0 C 4,1.1 3.1,2 2,2 0.9,2 0,1.1 0,0 c 0,-1.1 0.9,-2 2,-2 1.1,0 2,0.9 2,2 z"/></g></g><g><g transform="translate(64,96)"><title><tspan>B1</tspan></title><path d="M 2,0 a 2,2 0 1 1 -4,0 2,2 0 1 1 4,0 z"/><text x="-4" y="4" class="pinname"><tspan>B1</tspan></text></g></g></g></g><g><g><g transform="translate(16,0)"><path d="M96,112 96,160" class="wire"/></g><g><path d="m96,112 16,0" class="wire"/></g><g><path d="m96,128 16,0" class="wire"/></g><g><path d="m96,144 16,0" class="wire"/></g><g><path d="m96,160 16,0" class="wire"/></g><g transform="translate(128,136)"><title><tspan>&amp;</tspan></title><path class="gate" d="m -16,-10 5,0 c 6,0 11,4 11,10 0,6 -5,10 -11,10 l -5,0 z"/></g></g><g><g transform="translate(96,112)"><title><tspan>A1</tspan></title><path d="M 2,0 a 2,2 0 1 1 -4,0 2,2 0 1 1 4,0 z"/><text x="-4" y="4" class="pinname"><tspan>A1</tspan></text></g></g><g><g transform="translate(96,128)"><title><tspan>B1</tspan></title><path d="M 2,0 a 2,2 0 1 1 -4,0 2,2 0 1 1 4,0 z"/><text x="-4" y="4" class="pinname"><tspan>B1</tspan></text></g></g><g><g transform="translate(96,144)"><title><tspan>A0</tspan></title><path d="M 2,0 a 2,2 0 1 1 -4,0 2,2 0 1 1 4,0 z"/><text x="-4" y="4" class="pinname"><tspan>A0</tspan></text></g></g><g><g><g transform="translate(16,0)"><path d="M64,160 64,160" class="wire"/></g><g><path d="m64,160 16,0" class="wire"/></g><g transform="translate(96,160)"><title><tspan>~</tspan></title><path class="gate" d="M -11,-6 -11,6 0,0 z m -5,6 5,0M 4,0 C 4,1.1 3.1,2 2,2 0.9,2 0,1.1 0,0 c 0,-1.1 0.9,-2 2,-2 1.1,0 2,0.9 2,2 z"/></g></g><g><g transform="translate(64,160)"><title><tspan>B0</tspan></title><path d="M 2,0 a 2,2 0 1 1 -4,0 2,2 0 1 1 4,0 z"/><text x="-4" y="4" class="pinname"><tspan>B0</tspan></text></g></g></g></g><g><g><g transform="translate(16,0)"><path d="M96,176 96,224" class="wire"/></g><g><path d="m96,176 16,0" class="wire"/></g><g><path d="m96,192 16,0" class="wire"/></g><g><path d="m96,208 16,0" class="wire"/></g><g><path d="m96,224 16,0" class="wire"/></g><g transform="translate(128,200)"><title><tspan>&amp;</tspan></title><path class="gate" d="m -16,-10 5,0 c 6,0 11,4 11,10 0,6 -5,10 -11,10 l -5,0 z"/></g></g><g><g><g transform="translate(16,0)"><path d="M64,176 64,176" class="wire"/></g><g><path d="m64,176 16,0" class="wire"/></g><g transform="translate(96,176)"><title><tspan>~</tspan></title><path class="gate" d="M -11,-6 -11,6 0,0 z m -5,6 5,0M 4,0 C 4,1.1 3.1,2 2,2 0.9,2 0,1.1 0,0 c 0,-1.1 0.9,-2 2,-2 1.1,0 2,0.9 2,2 z"/></g></g><g><g transform="translate(64,176)"><title><tspan>A1</tspan></title><path d="M 2,0 a 2,2 0 1 1 -4,0 2,2 0 1 1 4,0 z"/><text x="-4" y="4" class="pinname"><tspan>A1</tspan></text></g></g></g><g><g><g transform="translate(16,0)"><path d="M64,192 64,192" class="wire"/></g><g><path d="m64,192 16,0" class="wire"/></g><g transform="translate(96,192)"><title><tspan>~</tspan></title><path class="gate" d="M -11,-6 -11,6 0,0 z m -5,6 5,0M 4,0 C 4,1.1 3.1,2 2,2 0.9,2 0,1.1 0,0 c 0,-1.1 0.9,-2 2,-2 1.1,0 2,0.9 2,2 z"/></g></g><g><g transform="translate(64,192)"><title><tspan>B1</tspan></title><path d="M 2,0 a 2,2 0 1 1 -4,0 2,2 0 1 1 4,0 z"/><text x="-4" y="4" class="pinname"><tspan>B1</tspan></text></g></g></g><g><g transform="translate(96,208)"><title><tspan>A0</tspan></title><path d="M 2,0 a 2,2 0 1 1 -4,0 2,2 0 1 1 4,0 z"/><text x="-4" y="4" class="pinname"><tspan>A0</tspan></text></g></g><g><g><g transform="translate(16,0)"><path d="M64,224 64,224" class="wire"/></g><g><path d="m64,224 16,0" class="wire"/></g><g transform="translate(96,224)"><title><tspan>~</tspan></title><path class="gate" d="M -11,-6 -11,6 0,0 z m -5,6 5,0M 4,0 C 4,1.1 3.1,2 2,2 0.9,2 0,1.1 0,0 c 0,-1.1 0.9,-2 2,-2 1.1,0 2,0.9 2,2 z"/></g></g><g><g transform="translate(64,224)"><title><tspan>B0</tspan></title><path d="M 2,0 a 2,2 0 1 1 -4,0 2,2 0 1 1 4,0 z"/><text x="-4" y="4" class="pinname"><tspan>B0</tspan></text></g></g></g></g></g></g><g><g><g transform="translate(16,0)"><path d="M160,312 160,312" class="wire"/></g><g><path d="m160,312 16,0" class="wire"/></g><g transform="translate(192,312)"><title><tspan>A&lt;B</tspan></title><text x="-14" y="4" class="wirename"><tspan>A&lt;B</tspan></text></g></g><g><g><g transform="translate(16,0)"><path d="M128,248 128,360" class="wire"/></g><g><path d="m128,248 16,0" class="wire"/></g><g><path d="m128,296 16,0" class="wire"/></g><g><path d="m128,360 16,0" class="wire"/></g><g transform="translate(160,312)"><title><tspan>|</tspan></title><path class="gate" d="m -18,-10 4,0 c 6,0 12,5 14,10 -2,5 -8,10 -14,10 l -4,0 c 2.5,-5 2.5,-15 0,-20 z"/></g></g><g><g><g transform="translate(16,0)"><path d="M96,240 96,256" class="wire"/></g><g><path d="m96,240 16,0" class="wire"/></g><g><path d="m96,256 16,0" class="wire"/></g><g transform="translate(128,248)"><title><tspan>&amp;</tspan></title><path class="gate" d="m -16,-10 5,0 c 6,0 11,4 11,10 0,6 -5,10 -11,10 l -5,0 z"/></g></g><g><g><g transform="translate(16,0)"><path d="M64,240 64,240" class="wire"/></g><g><path d="m64,240 16,0" class="wire"/></g><g transform="translate(96,240)"><title><tspan>~</tspan></title><path class="gate" d="M -11,-6 -11,6 0,0 z m -5,6 5,0M 4,0 C 4,1.1 3.1,2 2,2 0.9,2 0,1.1 0,0 c 0,-1.1 0.9,-2 2,-2 1.1,0 2,0.9 2,2 z"/></g></g><g><g transform="translate(64,240)"><title><tspan>A1</tspan></title><path d="M 2,0 a 2,2 0 1 1 -4,0 2,2 0 1 1 4,0 z"/><text x="-4" y="4" class="pinname"><tspan>A1</tspan></text></g></g></g><g><g transform="translate(96,256)"><title><tspan>B1</tspan></title><path d="M 2,0 a 2,2 0 1 1 -4,0 2,2 0 1 1 4,0 z"/><text x="-4" y="4" class="pinname"><tspan>B1</tspan></text></g></g></g><g><g><g transform="translate(16,0)"><path d="M96,272 96,320" class="wire"/></g><g><path d="m96,272 16,0" class="wire"/></g><g><path d="m96,288 16,0" class="wire"/></g><g><path d="m96,304 16,0" class="wire"/></g><g><path d="m96,320 16,0" class="wire"/></g><g transform="translate(128,296)"><title><tspan>&amp;</tspan></title><path class="gate" d="m -16,-10 5,0 c 6,0 11,4 11,10 0,6 -5,10 -11,10 l -5,0 z"/></g></g><g><g transform="translate(96,272)"><title><tspan>A1</tspan></title><path d="M 2,0 a 2,2 0 1 1 -4,0 2,2 0 1 1 4,0 z"/><text x="-4" y="4" class="pinname"><tspan>A1</tspan></text></g></g><g><g transform="translate(96,288)"><title><tspan>B1</tspan></title><path d="M 2,0 a 2,2 0 1 1 -4,0 2,2 0 1 1 4,0 z"/><text x="-4" y="4" class="pinname"><tspan>B1</tspan></text></g></g><g><g><g transform="translate(16,0)"><path d="M64,304 64,304" class="wire"/></g><g><path d="m64,304 16,0" class="wire"/></g><g transform="translate(96,304)"><title><tspan>~</tspan></title><path class="gate" d="M -11,-6 -11,6 0,0 z m -5,6 5,0M 4,0 C 4,1.1 3.1,2 2,2 0.9,2 0,1.1 0,0 c 0,-1.1 0.9,-2 2,-2 1.1,0 2,0.9 2,2 z"/></g></g><g><g transform="translate(64,304)"><title><tspan>A0</tspan></title><path d="M 2,0 a 2,2 0 1 1 -4,0 2,2 0 1 1 4,0 z"/><text x="-4" y="4" class="pinname"><tspan>A0</tspan></text></g></g></g><g><g transform="translate(96,320)"><title><tspan>B0</tspan></title><path d="M 2,0 a 2,2 0 1 1 -4,0 2,2 0 1 1 4,0 z"/><text x="-4" y="4" class="pinname"><tspan>B0</tspan></text></g></g></g><g><g><g transform="translate(16,0)"><path d="M96,336 96,384" class="wire"/></g><g><path d="m96,336 16,0" class="wire"/></g><g><path d="m96,352 16,0" class="wire"/></g><g><path d="m96,368 16,0" class="wire"/></g><g><path d="m96,384 16,0" class="wire"/></g><g transform="translate(128,360)"><title><tspan>&amp;</tspan></title><path class="gate" d="m -16,-10 5,0 c 6,0 11,4 11,10 0,6 -5,10 -11,10 l -5,0 z"/></g></g><g><g><g transform="translate(16,0)"><path d="M64,336 64,336" class="wire"/></g><g><path d="m64,336 16,0" class="wire"/></g><g transform="translate(96,336)"><title><tspan>~</tspan></title><path class="gate" d="M -11,-6 -11,6 0,0 z m -5,6 5,0M 4,0 C 4,1.1 3.1,2 2,2 0.9,2 0,1.1 0,0 c 0,-1.1 0.9,-2 2,-2 1.1,0 2,0.9 2,2 z"/></g></g><g><g transform="translate(64,336)"><title><tspan>A1</tspan></title><path d="M 2,0 a 2,2 0 1 1 -4,0 2,2 0 1 1 4,0 z"/><text x="-4" y="4" class="pinname"><tspan>A1</tspan></text></g></g></g><g><g><g transform="translate(16,0)"><path d="M64,352 64,352" class="wire"/></g><g><path d="m64,352 16,0" class="wire"/></g><g transform="translate(96,352)"><title><tspan>~</tspan></title><path class="gate" d="M -11,-6 -11,6 0,0 z m -5,6 5,0M 4,0 C 4,1.1 3.1,2 2,2 0.9,2 0,1.1 0,0 c 0,-1.1 0.9,-2 2,-2 1.1,0 2,0.9 2,2 z"/></g></g><g><g transform="translate(64,352)"><title><tspan>B1</tspan></title><path d="M 2,0 a 2,2 0 1 1 -4,0 2,2 0 1 1 4,0 z"/><text x="-4" y="4" class="pinname"><tspan>B1</tspan></text></g></g></g><g><g><g transform="translate(16,0)"><path d="M64,368 64,368" class="wire"/></g><g><path d="m64,368 16,0" class="wire"/></g><g transform="translate(96,368)"><title><tspan>~</tspan></title><path class="gate" d="M -11,-6 -11,6 0,0 z m -5,6 5,0M 4,0 C 4,1.1 3.1,2 2,2 0.9,2 0,1.1 0,0 c 0,-1.1 0.9,-2 2,-2 1.1,0 2,0.9 2,2 z"/></g></g><g><g transform="translate(64,368)"><title><tspan>A0</tspan></title><path d="M 2,0 a 2,2 0 1 1 -4,0 2,2 0 1 1 4,0 z"/><text x="-4" y="4" class="pinname"><tspan>A0</tspan></text></g></g></g><g><g transform="translate(96,384)"><title><tspan>B0</tspan></title><path d="M 2,0 a 2,2 0 1 1 -4,0 2,2 0 1 1 4,0 z"/><text x="-4" y="4" class="pinname"><tspan>B0</tspan></text></g></g></g></g></g></g></g></svg>