<?xml version="1.0" standalone="no"?>
<!DOCTYPE svg PUBLIC "-//W3C//DTD SVG 1.1//EN" "http://www.w3.org/Graphics/SVG/1.1/DTD/svg11.dtd">
<!-- Created with WaveDrom -->
<svg xmlns="http://www.w3.org/2000/svg" xmlns:xlink="http://www.w3.org/1999/xlink" id="svgcontent_0" viewBox="0 0 161 529" width="161" height="529" class="WaveDrom"><style>.pinname {font-size:12px; font-style:normal; font-variant:normal; font-weight:500; font-stretch:normal; text-align:center; text-anchor:end; font-family:Helvetica} .wirename {font-size:12px; font-style:normal; font-variant:normal; font-weight:500; font-stretch:normal; text-align:center; text-anchor:start; font-family:Helvetica} .wirename:hover {fill:blue} .gate {color:#000; fill:#ffc; fill-opacity: 1;stroke:#000; stroke-width:1; stroke-opacity:1} .gate:hover {fill:red !important; } .wire {fill:none; stroke:#000; stroke-width:1; stroke-opacity:1} .grid {fill:#fff; fill-opacity:1; stroke:none}</style><g transform="translate(0.5, 0.5)"><g><g><g><g transform="translate(16,0)"><path d="M96,72 96,72" class="wire"/></g><g><path d="m96,72 16,0" class="wire"/></g><g transform="translate(128,72)"><title><tspan>b0</tspan></title><text x="-14" y="4" class="wirename"><tspan>b0</tspan></text></g></g><g><g><g transform="translate(16,0)"><path d="M64,16 64,128" class="wire"/></g><g><path d="m64,16 16,0" class="wire"/></g><g><path d="m64,32 16,0" class="wire"/></g><g><path d="m64,48 16,0" class="wire"/></g><g><path d="m64,64 16,0" class="wire"/></g><g><path d="m64,80 16,0" class="wire"/></g><g><path d="m64,96 16,0" class="wire"/></g><g><path d="m64,112 16,0" class="wire"/></g><g><path d="m64,128 16,0" class="wire"/></g><g transform="translate(96,72)"><title><tspan>|</tspan></title><path class="gate" d="m -18,-10 4,0 c 6,0 12,5 14,10 -2,5 -8,10 -14,10 l -4,0 c 2.5,-5 2.5,-15 0,-20 z"/></g></g><g><g transform="translate(64,16)"><title><tspan>1</tspan></title><path d="M 2,0 a 2,2 0 1 1 -4,0 2,2 0 1 1 4,0 z"/><text x="-4" y="4" class="pinname"><tspan>1</tspan></text></g></g><g><g transform="translate(64,32)"><title><tspan>3</tspan></title><path d="M 2,0 a 2,2 0 1 1 -4,0 2,2 0 1 1 4,0 z"/><text x="-4" y="4" class="pinname"><tspan>3</tspan></text></g></g><g><g transform="translate(64,48)"><title><tspan>5</tspan></title><path d="M 2,0 a 2,2 0 1 1 -4,0 2,2 0 1 1 4,0 z"/><text x="-4" y="4" class="pinname"><tspan>5</tspan></text></g></g><g><g transform="translate(64,64)"><title><tspan>7</tspan></title><path d="M 2,0 a 2,2 0 1 1 -4,0 2,2 0 1 1 4,0 z"/><text x="-4" y="4" class="pinname"><tspan>7</tspan></text></g></g><g><g transform="translate(64,80)"><title><tspan>9</tspan></title><path d="M 2,0 a 2,2 0 1 1 -4,0 2,2 0 1 1 4,0 z"/><text x="-4" y="4" class="pinname"><tspan>9</tspan></text></g></g><g><g transform="translate(64,96)"><title><tspan>B</tspan></title><path d="M 2,0 a 2,2 0 1 1 -4,0 2,2 0 1 1 4,0 z"/><text x="-4" y="4" class="pinname"><tspan>B</tspan></text></g></g><g><g transform="translate(64,112)"><title><tspan>D</tspan></title><path d="M 2,0 a 2,2 0 1 1 -4,0 2,2 0 1 1 4,0 z"/><text x="-4" y="4" class="pinname"><tspan>D</tspan></text></g></g><g><g transform="translate(64,128)"><title><tspan>F</tspan></title><path d="M 2,0 a 2,2 0 1 1 -4,0 2,2 0 1 1 4,0 z"/><text x="-4" y="4" class="pinname"><tspan>F</tspan></text></g></g></g></g><g><g><g transform="translate(16,0)"><path d="M96,200 96,200" class="wire"/></g><g><path d="m96,200 16,0" class="wire"/></g><g transform="translate(128,200)"><title><tspan>b1</tspan></title><text x="-14" y="4" class="wirename"><tspan>b1</tspan></text></g></g><g><g><g transform="translate(16,0)"><path d="M64,144 64,256" class="wire"/></g><g><path d="m64,144 16,0" class="wire"/></g><g><path d="m64,160 16,0" class="wire"/></g><g><path d="m64,176 16,0" class="wire"/></g><g><path d="m64,192 16,0" class="wire"/></g><g><path d="m64,208 16,0" class="wire"/></g><g><path d="m64,224 16,0" class="wire"/></g><g><path d="m64,240 16,0" class="wire"/></g><g><path d="m64,256 16,0" class="wire"/></g><g transform="translate(96,200)"><title><tspan>|</tspan></title><path class="gate" d="m -18,-10 4,0 c 6,0 12,5 14,10 -2,5 -8,10 -14,10 l -4,0 c 2.5,-5 2.5,-15 0,-20 z"/></g></g><g><g transform="translate(64,144)"><title><tspan>2</tspan></title><path d="M 2,0 a 2,2 0 1 1 -4,0 2,2 0 1 1 4,0 z"/><text x="-4" y="4" class="pinname"><tspan>2</tspan></text></g></g><g><g transform="translate(64,160)"><title><tspan>3</tspan></title><path d="M 2,0 a 2,2 0 1 1 -4,0 2,2 0 1 1 4,0 z"/><text x="-4" y="4" class="pinname"><tspan>3</tspan></text></g></g><g><g transform="translate(64,176)"><title><tspan>6</tspan></title><path d="M 2,0 a 2,2 0 1 1 -4,0 2,2 0 1 1 4,0 z"/><text x="-4" y="4" class="pinname"><tspan>6</tspan></text></g></g><g><g transform="translate(64,192)"><title><tspan>7</tspan></title><path d="M 2,0 a 2,2 0 1 1 -4,0 2,2 0 1 1 4,0 z"/><text x="-4" y="4" class="pinname"><tspan>7</tspan></text></g></g><g><g transform="translate(64,208)"><title><tspan>A</tspan></title><path d="M 2,0 a 2,2 0 1 1 -4,0 2,2 0 1 1 4,0 z"/><text x="-4" y="4" class="pinname"><tspan>A</tspan></text></g></g><g><g transform="translate(64,224)"><title><tspan>B</tspan></title><path d="M 2,0 a 2,2 0 1 1 -4,0 2,2 0 1 1 4,0 z"/><text x="-4" y="4" class="pinname"><tspan>B</tspan></text></g></g><g><g transform="translate(64,240)"><title><tspan>E</tspan></title><path d="M 2,0 a 2,2 0 1 1 -4,0 2,2 0 1 1 4,0 z"/><text x="-4" y="4" class="pinname"><tspan>E</tspan></text></g></g><g><g transform="translate(64,256)"><title><tspan>F</tspan></title><path d="M 2,0 a 2,2 0 1 1 -4,0 2,2 0 1 1 4,0 z"/><text x="-4" y="4" class="pinname"><tspan>F</tspan></text></g></g></g></g><g><g><g transform="translate(16,0)"><path d="M96,328 96,328" class="wire"/></g><g><path d="m96,328 16,0" class="wire"/></g><g transform="translate(128,328)"><title><tspan>b2</tspan></title><text x="-14" y="4" class="wirename"><tspan>b2</tspan></text></g></g><g><g><g transform="translate(16,0)"><path d="M64,272 64,384" class="wire"/></g><g><path d="m64,272 16,0" class="wire"/></g><g><path d="m64,288 16,0" class="wire"/></g><g><path d="m64,304 16,0" class="wire"/></g><g><path d="m64,320 16,0" class="wire"/></g><g><path d="m64,336 16,0" class="wire"/></g><g><path d="m64,352 16,0" class="wire"/></g><g><path d="m64,368 16,0" class="wire"/></g><g><path d="m64,384 16,0" class="wire"/></g><g transform="translate(96,328)"><title><tspan>|</tspan></title><path class="gate" d="m -18,-10 4,0 c 6,0 12,5 14,10 -2,5 -8,10 -14,10 l -4,0 c 2.5,-5 2.5,-15 0,-20 z"/></g></g><g><g transform="translate(64,272)"><title><tspan>4</tspan></title><path d="M 2,0 a 2,2 0 1 1 -4,0 2,2 0 1 1 4,0 z"/><text x="-4" y="4" class="pinname"><tspan>4</tspan></text></g></g><g><g transform="translate(64,288)"><title><tspan>5</tspan></title><path d="M 2,0 a 2,2 0 1 1 -4,0 2,2 0 1 1 4,0 z"/><text x="-4" y="4" class="pinname"><tspan>5</tspan></text></g></g><g><g transform="translate(64,304)"><title><tspan>6</tspan></title><path d="M 2,0 a 2,2 0 1 1 -4,0 2,2 0 1 1 4,0 z"/><text x="-4" y="4" class="pinname"><tspan>6</tspan></text></g></g><g><g transform="translate(64,320)"><title><tspan>7</tspan></title><path d="M 2,0 a 2,2 0 1 1 -4,0 2,2 0 1 1 4,0 z"/><text x="-4" y="4" class="pinname"><tspan>7</tspan></text></g></g><g><g transform="translate(64,336)"><title><tspan>C</tspan></title><path d="M 2,0 a 2,2 0 1 1 -4,0 2,2 0 1 1 4,0 z"/><text x="-4" y="4" class="pinname"><tspan>C</tspan></text></g></g><g><g transform="translate(64,352)"><title><tspan>D</tspan></title><path d="M 2,0 a 2,2 0 1 1 -4,0 2,2 0 1 1 4,0 z"/><text x="-4" y="4" class="pinname"><tspan>D</tspan></text></g></g><g><g transform="translate(64,368)"><title><tspan>E</tspan></title><path d="M 2,0 a 2,2 0 1 1 -4,0 2,2 0 1 1 4,0 z"/><text x="-4" y="4" class="pinname"><tspan>E</tspan></text></g></g><g><g transform="translate(64,384)"><title><tspan>F</tspan></title><path d="M 2,0 a 2,2 0 1 1 -4,0 2,2 0 1 1 4,0 z"/><text x="-4" y="4" class="pinname"><tspan>F</tspan></text></g></g></g></g><g><g><g transform="translate(16,0)"><path d="M96,456 96,456" class="wire"/></g><g><path d="m96,456 16,0" class="wire"/></g><g transform="translate(128,456)"><title><tspan>b3</tspan></title><text x="-14" y="4" class="wirename"><tspan>b3</tspan></text></g></g><g><g><g transform="translate(16,0)"><path d="M64,400 64,512" class="wire"/></g><g><path d="m64,400 16,0" class="wire"/></g><g><path d="m64,416 16,0" class="wire"/></g><g><path d="m64,432 16,0" class="wire"/></g><g><path d="m64,448 16,0" class="wire"/></g><g><path d="m64,464 16,0" class="wire"/></g><g><path d="m64,480 16,0" class="wire"/></g><g><path d="m64,496 16,0" class="wire"/></g><g><path d="m64,512 16,0" class="wire"/></g><g transform="translate(96,456)"><title><tspan>|</tspan></title><path class="gate" d="m -18,-10 4,0 c 6,0 12,5 14,10 -2,5 -8,10 -14,10 l -4,0 c 2.5,-5 2.5,-15 0,-20 z"/></g></g><g><g transform="translate(64,400)"><title><tspan>8</tspan></title><path d="M 2,0 a 2,2 0 1 1 -4,0 2,2 0 1 1 4,0 z"/><text x="-4" y="4" class="pinname"><tspan>8</tspan></text></g></g><g><g transform="translate(64,416)"><title><tspan>9</tspan></title><path d="M 2,0 a 2,2 0 1 1 -4,0 2,2 0 1 1 4,0 z"/><text x="-4" y="4" class="pinname"><tspan>9</tspan></text></g></g><g><g transform="translate(64,432)"><title><tspan>A</tspan></title><path d="M 2,0 a 2,2 0 1 1 -4,0 2,2 0 1 1 4,0 z"/><text x="-4" y="4" class="pinname"><tspan>A</tspan></text></g></g><g><g transform="translate(64,448)"><title><tspan>B</tspan></title><path d="M 2,0 a 2,2 0 1 1 -4,0 2,2 0 1 1 4,0 z"/><text x="-4" y="4" class="pinname"><tspan>B</tspan></text></g></g><g><g transform="translate(64,464)"><title><tspan>C</tspan></title><path d="M 2,0 a 2,2 0 1 1 -4,0 2,2 0 1 1 4,0 z"/><text x="-4" y="4" class="pinname"><tspan>C</tspan></text></g></g><g><g transform="translate(64,480)"><title><tspan>D</tspan></title><path d="M 2,0 a 2,2 0 1 1 -4,0 2,2 0 1 1 4,0 z"/><text x="-4" y="4" class="pinname"><tspan>D</tspan></text></g></g><g><g transform="translate(64,496)"><title><tspan>E</tspan></title><path d="M 2,0 a 2,2 0 1 1 -4,0 2,2 0 1 1 4,0 z"/><text x="-4" y="4" class="pinname"><tspan>E</tspan></text></g></g><g><g transform="translate(64,512)"><title><tspan>F</tspan></title><path d="M 2,0 a 2,2 0 1 1 -4,0 2,2 0 1 1 4,0 z"/><text x="-4" y="4" class="pinname"><tspan>F</tspan></text></g></g></g></g></g></g></svg>