<?xml version="1.0" standalone="no"?>
<!DOCTYPE svg PUBLIC "-//W3C//DTD SVG 1.1//EN" "http://www.w3.org/Graphics/SVG/1.1/DTD/svg11.dtd">
<!-- Created with WaveDrom -->
<svg xmlns="http://www.w3.org/2000/svg" xmlns:xlink="http://www.w3.org/1999/xlink" id="svgcontent_0" viewBox="0 0 193 81" width="193" height="81" class="WaveDrom"><style>.pinname {font-size:12px; font-style:normal; font-variant:normal; font-weight:500; font-stretch:normal; text-align:center; text-anchor:end; font-family:Helvetica} .wirename {font-size:12px; font-style:normal; font-variant:normal; font-weight:500; font-stretch:normal; text-align:center; text-anchor:start; font-family:Helvetica} .wirename:hover {fill:blue} .gate {color:#000; fill:#ffc; fill-opacity: 1;stroke:#000; stroke-width:1; stroke-opacity:1} .gate:hover {fill:red !important; } .wire {fill:none; stroke:#000; stroke-width:1; stroke-opacity:1} .grid {fill:#fff; fill-opacity:1; stroke:none}</style><g transform="translate(0.5, 0.5)"><g><rect height="1" width="1" x="-0.5" y="-0.5" class="grid"/><rect height="1" width="1" x="-0.5" y="7.5" class="grid"/><rect height="1" width="1" x="-0.5" y="15.5" class="grid"/><rect height="1" width="1" x="-0.5" y="23.5" class="grid"/><rect height="1" width="1" x="-0.5" y="31.5" class="grid"/><rect height="1" width="1" x="-0.5" y="39.5" class="grid"/><rect height="1" width="1" x="-0.5" y="47.5" class="grid"/><rect height="1" width="1" x="-0.5" y="55.5" class="grid"/><rect height="1" width="1" x="-0.5" y="63.5" class="grid"/><rect height="1" width="1" x="-0.5" y="71.5" class="grid"/><rect height="1" width="1" x="-0.5" y="79.5" class="grid"/><rect height="1" width="1" x="-0.5" y="87.5" class="grid"/><rect height="1" width="1" x="7.5" y="-0.5" class="grid"/><rect height="1" width="1" x="7.5" y="7.5" class="grid"/><rect height="1" width="1" x="7.5" y="15.5" class="grid"/><rect height="1" width="1" x="7.5" y="23.5" class="grid"/><rect height="1" width="1" x="7.5" y="31.5" class="grid"/><rect height="1" width="1" x="7.5" y="39.5" class="grid"/><rect height="1" width="1" x="7.5" y="47.5" class="grid"/><rect height="1" width="1" x="7.5" y="55.5" class="grid"/><rect height="1" width="1" x="7.5" y="63.5" class="grid"/><rect height="1" width="1" x="7.5" y="71.5" class="grid"/><rect height="1" width="1" x="7.5" y="79.5" class="grid"/><rect height="1" width="1" x="7.5" y="87.5" class="grid"/><rect height="1" width="1" x="15.5" y="-0.5" class="grid"/><rect height="1" width="1" x="15.5" y="7.5" class="grid"/><rect height="1" width="1" x="15.5" y="15.5" class="grid"/><rect height="1" width="1" x="15.5" y="23.5" class="grid"/><rect height="1" width="1" x="15.5" y="31.5" class="grid"/><rect height="1" width="1" x="15.5" y="39.5" class="grid"/><rect height="1" width="1" x="15.5" y="47.5" class="grid"/><rect height="1" width="1" x="15.5" y="55.5" class="grid"/><rect height="1" width="1" x="15.5" y="63.5" class="grid"/><rect height="1" width="1" x="15.5" y="71.5" class="grid"/><rect height="1" width="1" x="15.5" y="79.5" class="grid"/><rect height="1" width="1" x="15.5" y="87.5" class="grid"/><rect height="1" width="1" x="23.5" y="-0.5" class="grid"/><rect height="1" width="1" x="23.5" y="7.5" class="grid"/><rect height="1" width="1" x="23.5" y="15.5" class="grid"/><rect height="1" width="1" x="23.5" y="23.5" class="grid"/><rect height="1" width="1" x="23.5" y="31.5" class="grid"/><rect height="1" width="1" x="23.5" y="39.5" class="grid"/><rect height="1" width="1" x="23.5" y="47.5" class="grid"/><rect height="1" width="1" x="23.5" y="55.5" class="grid"/><rect height="1" width="1" x="23.5" y="63.5" class="grid"/><rect height="1" width="1" x="23.5" y="71.5" class="grid"/><rect height="1" width="1" x="23.5" y="79.5" class="grid"/><rect height="1" width="1" x="23.5" y="87.5" class="grid"/><rect height="1" width="1" x="31.5" y="-0.5" class="grid"/><rect height="1" width="1" x="31.5" y="7.5" class="grid"/><rect height="1" width="1" x="31.5" y="15.5" class="grid"/><rect height="1" width="1" x="31.5" y="23.5" class="grid"/><rect height="1" width="1" x="31.5" y="31.5" class="grid"/><rect height="1" width="1" x="31.5" y="39.5" class="grid"/><rect height="1" width="1" x="31.5" y="47.5" class="grid"/><rect height="1" width="1" x="31.5" y="55.5" class="grid"/><rect height="1" width="1" x="31.5" y="63.5" class="grid"/><rect height="1" width="1" x="31.5" y="71.5" class="grid"/><rect height="1" width="1" x="31.5" y="79.5" class="grid"/><rect height="1" width="1" x="31.5" y="87.5" class="grid"/><rect height="1" width="1" x="39.5" y="-0.5" class="grid"/><rect height="1" width="1" x="39.5" y="7.5" class="grid"/><rect height="1" width="1" x="39.5" y="15.5" class="grid"/><rect height="1" width="1" x="39.5" y="23.5" class="grid"/><rect height="1" width="1" x="39.5" y="31.5" class="grid"/><rect height="1" width="1" x="39.5" y="39.5" class="grid"/><rect height="1" width="1" x="39.5" y="47.5" class="grid"/><rect height="1" width="1" x="39.5" y="55.5" class="grid"/><rect height="1" width="1" x="39.5" y="63.5" class="grid"/><rect height="1" width="1" x="39.5" y="71.5" class="grid"/><rect height="1" width="1" x="39.5" y="79.5" class="grid"/><rect height="1" width="1" x="39.5" y="87.5" class="grid"/><rect height="1" width="1" x="47.5" y="-0.5" class="grid"/><rect height="1" width="1" x="47.5" y="7.5" class="grid"/><rect height="1" width="1" x="47.5" y="15.5" class="grid"/><rect height="1" width="1" x="47.5" y="23.5" class="grid"/><rect height="1" width="1" x="47.5" y="31.5" class="grid"/><rect height="1" width="1" x="47.5" y="39.5" class="grid"/><rect height="1" width="1" x="47.5" y="47.5" class="grid"/><rect height="1" width="1" x="47.5" y="55.5" class="grid"/><rect height="1" width="1" x="47.5" y="63.5" class="grid"/><rect height="1" width="1" x="47.5" y="71.5" class="grid"/><rect height="1" width="1" x="47.5" y="79.5" class="grid"/><rect height="1" width="1" x="47.5" y="87.5" class="grid"/><rect height="1" width="1" x="55.5" y="-0.5" class="grid"/><rect height="1" width="1" x="55.5" y="7.5" class="grid"/><rect height="1" width="1" x="55.5" y="15.5" class="grid"/><rect height="1" width="1" x="55.5" y="23.5" class="grid"/><rect height="1" width="1" x="55.5" y="31.5" class="grid"/><rect height="1" width="1" x="55.5" y="39.5" class="grid"/><rect height="1" width="1" x="55.5" y="47.5" class="grid"/><rect height="1" width="1" x="55.5" y="55.5" class="grid"/><rect height="1" width="1" x="55.5" y="63.5" class="grid"/><rect height="1" width="1" x="55.5" y="71.5" class="grid"/><rect height="1" width="1" x="55.5" y="79.5" class="grid"/><rect height="1" width="1" x="55.5" y="87.5" class="grid"/><rect height="1" width="1" x="63.5" y="-0.5" class="grid"/><rect height="1" width="1" x="63.5" y="7.5" class="grid"/><rect height="1" width="1" x="63.5" y="15.5" class="grid"/><rect height="1" width="1" x="63.5" y="23.5" class="grid"/><rect height="1" width="1" x="63.5" y="31.5" class="grid"/><rect height="1" width="1" x="63.5" y="39.5" class="grid"/><rect height="1" width="1" x="63.5" y="47.5" class="grid"/><rect height="1" width="1" x="63.5" y="55.5" class="grid"/><rect height="1" width="1" x="63.5" y="63.5" class="grid"/><rect height="1" width="1" x="63.5" y="71.5" class="grid"/><rect height="1" width="1" x="63.5" y="79.5" class="grid"/><rect height="1" width="1" x="63.5" y="87.5" class="grid"/><rect height="1" width="1" x="71.5" y="-0.5" class="grid"/><rect height="1" width="1" x="71.5" y="7.5" class="grid"/><rect height="1" width="1" x="71.5" y="15.5" class="grid"/><rect height="1" width="1" x="71.5" y="23.5" class="grid"/><rect height="1" width="1" x="71.5" y="31.5" class="grid"/><rect height="1" width="1" x="71.5" y="39.5" class="grid"/><rect height="1" width="1" x="71.5" y="47.5" class="grid"/><rect height="1" width="1" x="71.5" y="55.5" class="grid"/><rect height="1" width="1" x="71.5" y="63.5" class="grid"/><rect height="1" width="1" x="71.5" y="71.5" class="grid"/><rect height="1" width="1" x="71.5" y="79.5" class="grid"/><rect height="1" width="1" x="71.5" y="87.5" class="grid"/><rect height="1" width="1" x="79.5" y="-0.5" class="grid"/><rect height="1" width="1" x="79.5" y="7.5" class="grid"/><rect height="1" width="1" x="79.5" y="15.5" class="grid"/><rect height="1" width="1" x="79.5" y="23.5" class="grid"/><rect height="1" width="1" x="79.5" y="31.5" class="grid"/><rect height="1" width="1" x="79.5" y="39.5" class="grid"/><rect height="1" width="1" x="79.5" y="47.5" class="grid"/><rect height="1" width="1" x="79.5" y="55.5" class="grid"/><rect height="1" width="1" x="79.5" y="63.5" class="grid"/><rect height="1" width="1" x="79.5" y="71.5" class="grid"/><rect height="1" width="1" x="79.5" y="79.5" class="grid"/><rect height="1" width="1" x="79.5" y="87.5" class="grid"/><rect height="1" width="1" x="87.5" y="-0.5" class="grid"/><rect height="1" width="1" x="87.5" y="7.5" class="grid"/><rect height="1" width="1" x="87.5" y="15.5" class="grid"/><rect height="1" width="1" x="87.5" y="23.5" class="grid"/><rect height="1" width="1" x="87.5" y="31.5" class="grid"/><rect height="1" width="1" x="87.5" y="39.5" class="grid"/><rect height="1" width="1" x="87.5" y="47.5" class="grid"/><rect height="1" width="1" x="87.5" y="55.5" class="grid"/><rect height="1" width="1" x="87.5" y="63.5" class="grid"/><rect height="1" width="1" x="87.5" y="71.5" class="grid"/><rect height="1" width="1" x="87.5" y="79.5" class="grid"/><rect height="1" width="1" x="87.5" y="87.5" class="grid"/><rect height="1" width="1" x="95.5" y="-0.5" class="grid"/><rect height="1" width="1" x="95.5" y="7.5" class="grid"/><rect height="1" width="1" x="95.5" y="15.5" class="grid"/><rect height="1" width="1" x="95.5" y="23.5" class="grid"/><rect height="1" width="1" x="95.5" y="31.5" class="grid"/><rect height="1" width="1" x="95.5" y="39.5" class="grid"/><rect height="1" width="1" x="95.5" y="47.5" class="grid"/><rect height="1" width="1" x="95.5" y="55.5" class="grid"/><rect height="1" width="1" x="95.5" y="63.5" class="grid"/><rect height="1" width="1" x="95.5" y="71.5" class="grid"/><rect height="1" width="1" x="95.5" y="79.5" class="grid"/><rect height="1" width="1" x="95.5" y="87.5" class="grid"/><rect height="1" width="1" x="103.5" y="-0.5" class="grid"/><rect height="1" width="1" x="103.5" y="7.5" class="grid"/><rect height="1" width="1" x="103.5" y="15.5" class="grid"/><rect height="1" width="1" x="103.5" y="23.5" class="grid"/><rect height="1" width="1" x="103.5" y="31.5" class="grid"/><rect height="1" width="1" x="103.5" y="39.5" class="grid"/><rect height="1" width="1" x="103.5" y="47.5" class="grid"/><rect height="1" width="1" x="103.5" y="55.5" class="grid"/><rect height="1" width="1" x="103.5" y="63.5" class="grid"/><rect height="1" width="1" x="103.5" y="71.5" class="grid"/><rect height="1" width="1" x="103.5" y="79.5" class="grid"/><rect height="1" width="1" x="103.5" y="87.5" class="grid"/><rect height="1" width="1" x="111.5" y="-0.5" class="grid"/><rect height="1" width="1" x="111.5" y="7.5" class="grid"/><rect height="1" width="1" x="111.5" y="15.5" class="grid"/><rect height="1" width="1" x="111.5" y="23.5" class="grid"/><rect height="1" width="1" x="111.5" y="31.5" class="grid"/><rect height="1" width="1" x="111.5" y="39.5" class="grid"/><rect height="1" width="1" x="111.5" y="47.5" class="grid"/><rect height="1" width="1" x="111.5" y="55.5" class="grid"/><rect height="1" width="1" x="111.5" y="63.5" class="grid"/><rect height="1" width="1" x="111.5" y="71.5" class="grid"/><rect height="1" width="1" x="111.5" y="79.5" class="grid"/><rect height="1" width="1" x="111.5" y="87.5" class="grid"/><rect height="1" width="1" x="119.5" y="-0.5" class="grid"/><rect height="1" width="1" x="119.5" y="7.5" class="grid"/><rect height="1" width="1" x="119.5" y="15.5" class="grid"/><rect height="1" width="1" x="119.5" y="23.5" class="grid"/><rect height="1" width="1" x="119.5" y="31.5" class="grid"/><rect height="1" width="1" x="119.5" y="39.5" class="grid"/><rect height="1" width="1" x="119.5" y="47.5" class="grid"/><rect height="1" width="1" x="119.5" y="55.5" class="grid"/><rect height="1" width="1" x="119.5" y="63.5" class="grid"/><rect height="1" width="1" x="119.5" y="71.5" class="grid"/><rect height="1" width="1" x="119.5" y="79.5" class="grid"/><rect height="1" width="1" x="119.5" y="87.5" class="grid"/><rect height="1" width="1" x="127.5" y="-0.5" class="grid"/><rect height="1" width="1" x="127.5" y="7.5" class="grid"/><rect height="1" width="1" x="127.5" y="15.5" class="grid"/><rect height="1" width="1" x="127.5" y="23.5" class="grid"/><rect height="1" width="1" x="127.5" y="31.5" class="grid"/><rect height="1" width="1" x="127.5" y="39.5" class="grid"/><rect height="1" width="1" x="127.5" y="47.5" class="grid"/><rect height="1" width="1" x="127.5" y="55.5" class="grid"/><rect height="1" width="1" x="127.5" y="63.5" class="grid"/><rect height="1" width="1" x="127.5" y="71.5" class="grid"/><rect height="1" width="1" x="127.5" y="79.5" class="grid"/><rect height="1" width="1" x="127.5" y="87.5" class="grid"/><rect height="1" width="1" x="135.5" y="-0.5" class="grid"/><rect height="1" width="1" x="135.5" y="7.5" class="grid"/><rect height="1" width="1" x="135.5" y="15.5" class="grid"/><rect height="1" width="1" x="135.5" y="23.5" class="grid"/><rect height="1" width="1" x="135.5" y="31.5" class="grid"/><rect height="1" width="1" x="135.5" y="39.5" class="grid"/><rect height="1" width="1" x="135.5" y="47.5" class="grid"/><rect height="1" width="1" x="135.5" y="55.5" class="grid"/><rect height="1" width="1" x="135.5" y="63.5" class="grid"/><rect height="1" width="1" x="135.5" y="71.5" class="grid"/><rect height="1" width="1" x="135.5" y="79.5" class="grid"/><rect height="1" width="1" x="135.5" y="87.5" class="grid"/><rect height="1" width="1" x="143.5" y="-0.5" class="grid"/><rect height="1" width="1" x="143.5" y="7.5" class="grid"/><rect height="1" width="1" x="143.5" y="15.5" class="grid"/><rect height="1" width="1" x="143.5" y="23.5" class="grid"/><rect height="1" width="1" x="143.5" y="31.5" class="grid"/><rect height="1" width="1" x="143.5" y="39.5" class="grid"/><rect height="1" width="1" x="143.5" y="47.5" class="grid"/><rect height="1" width="1" x="143.5" y="55.5" class="grid"/><rect height="1" width="1" x="143.5" y="63.5" class="grid"/><rect height="1" width="1" x="143.5" y="71.5" class="grid"/><rect height="1" width="1" x="143.5" y="79.5" class="grid"/><rect height="1" width="1" x="143.5" y="87.5" class="grid"/><rect height="1" width="1" x="151.5" y="-0.5" class="grid"/><rect height="1" width="1" x="151.5" y="7.5" class="grid"/><rect height="1" width="1" x="151.5" y="15.5" class="grid"/><rect height="1" width="1" x="151.5" y="23.5" class="grid"/><rect height="1" width="1" x="151.5" y="31.5" class="grid"/><rect height="1" width="1" x="151.5" y="39.5" class="grid"/><rect height="1" width="1" x="151.5" y="47.5" class="grid"/><rect height="1" width="1" x="151.5" y="55.5" class="grid"/><rect height="1" width="1" x="151.5" y="63.5" class="grid"/><rect height="1" width="1" x="151.5" y="71.5" class="grid"/><rect height="1" width="1" x="151.5" y="79.5" class="grid"/><rect height="1" width="1" x="151.5" y="87.5" class="grid"/><rect height="1" width="1" x="159.5" y="-0.5" class="grid"/><rect height="1" width="1" x="159.5" y="7.5" class="grid"/><rect height="1" width="1" x="159.5" y="15.5" class="grid"/><rect height="1" width="1" x="159.5" y="23.5" class="grid"/><rect height="1" width="1" x="159.5" y="31.5" class="grid"/><rect height="1" width="1" x="159.5" y="39.5" class="grid"/><rect height="1" width="1" x="159.5" y="47.5" class="grid"/><rect height="1" width="1" x="159.5" y="55.5" class="grid"/><rect height="1" width="1" x="159.5" y="63.5" class="grid"/><rect height="1" width="1" x="159.5" y="71.5" class="grid"/><rect height="1" width="1" x="159.5" y="79.5" class="grid"/><rect height="1" width="1" x="159.5" y="87.5" class="grid"/><rect height="1" width="1" x="167.5" y="-0.5" class="grid"/><rect height="1" width="1" x="167.5" y="7.5" class="grid"/><rect height="1" width="1" x="167.5" y="15.5" class="grid"/><rect height="1" width="1" x="167.5" y="23.5" class="grid"/><rect height="1" width="1" x="167.5" y="31.5" class="grid"/><rect height="1" width="1" x="167.5" y="39.5" class="grid"/><rect height="1" width="1" x="167.5" y="47.5" class="grid"/><rect height="1" width="1" x="167.5" y="55.5" class="grid"/><rect height="1" width="1" x="167.5" y="63.5" class="grid"/><rect height="1" width="1" x="167.5" y="71.5" class="grid"/><rect height="1" width="1" x="167.5" y="79.5" class="grid"/><rect height="1" width="1" x="167.5" y="87.5" class="grid"/><rect height="1" width="1" x="175.5" y="-0.5" class="grid"/><rect height="1" width="1" x="175.5" y="7.5" class="grid"/><rect height="1" width="1" x="175.5" y="15.5" class="grid"/><rect height="1" width="1" x="175.5" y="23.5" class="grid"/><rect height="1" width="1" x="175.5" y="31.5" class="grid"/><rect height="1" width="1" x="175.5" y="39.5" class="grid"/><rect height="1" width="1" x="175.5" y="47.5" class="grid"/><rect height="1" width="1" x="175.5" y="55.5" class="grid"/><rect height="1" width="1" x="175.5" y="63.5" class="grid"/><rect height="1" width="1" x="175.5" y="71.5" class="grid"/><rect height="1" width="1" x="175.5" y="79.5" class="grid"/><rect height="1" width="1" x="175.5" y="87.5" class="grid"/><rect height="1" width="1" x="183.5" y="-0.5" class="grid"/><rect height="1" width="1" x="183.5" y="7.5" class="grid"/><rect height="1" width="1" x="183.5" y="15.5" class="grid"/><rect height="1" width="1" x="183.5" y="23.5" class="grid"/><rect height="1" width="1" x="183.5" y="31.5" class="grid"/><rect height="1" width="1" x="183.5" y="39.5" class="grid"/><rect height="1" width="1" x="183.5" y="47.5" class="grid"/><rect height="1" width="1" x="183.5" y="55.5" class="grid"/><rect height="1" width="1" x="183.5" y="63.5" class="grid"/><rect height="1" width="1" x="183.5" y="71.5" class="grid"/><rect height="1" width="1" x="183.5" y="79.5" class="grid"/><rect height="1" width="1" x="183.5" y="87.5" class="grid"/><rect height="1" width="1" x="191.5" y="-0.5" class="grid"/><rect height="1" width="1" x="191.5" y="7.5" class="grid"/><rect height="1" width="1" x="191.5" y="15.5" class="grid"/><rect height="1" width="1" x="191.5" y="23.5" class="grid"/><rect height="1" width="1" x="191.5" y="31.5" class="grid"/><rect height="1" width="1" x="191.5" y="39.5" class="grid"/><rect height="1" width="1" x="191.5" y="47.5" class="grid"/><rect height="1" width="1" x="191.5" y="55.5" class="grid"/><rect height="1" width="1" x="191.5" y="63.5" class="grid"/><rect height="1" width="1" x="191.5" y="71.5" class="grid"/><rect height="1" width="1" x="191.5" y="79.5" class="grid"/><rect height="1" width="1" x="191.5" y="87.5" class="grid"/></g><g><g><g><g transform="translate(16,0)"><path d="M  128,24 128,24" class="wire"/></g><g><path d="m  128,24 16,0" class="wire"/></g><g transform="translate(160,24)"><title>d_1</title><text><tspan x="-14" y="4" class="wirename">d_1</tspan></text></g></g><g><g><g transform="translate(16,0)"><path d="M  96,16 96,32" class="wire"/></g><g><path d="m  96,16 16,0" class="wire"/></g><g><path d="m  96,32 16,0" class="wire"/></g><g transform="translate(128,24)"><title>|</title><path class="gate" d="m -18,-10 4,0 c 6,0 12,5 14,10 -2,5 -8,10 -14,10 l -4,0 c 2.5,-5 2.5,-15 0,-20 z"/></g></g><g><g><g transform="translate(16,0)"><path d="M  64,16 64,16" class="wire"/></g><g><path d="m  64,16 16,0" class="wire"/></g><g transform="translate(96,16)"><title>~</title><path class="gate" d="M -11,-6 -11,6 0,0 z m -5,6 5,0 M 4,0 C 4,1.1 3.1,2 2,2 0.9,2 0,1.1 0,0 c 0,-1.1 0.9,-2 2,-2 1.1,0 2,0.9 2,2 z"/></g></g><g><g transform="translate(64,16)"><title>n_D</title><path d="M 2,0 a 2,2 0 1 1 -4,0 2,2 0 1 1 4,0 z"/><text><tspan x="-4" y="4" class="pinname">n_D</tspan></text></g></g></g><g><g><g transform="translate(16,0)"><path d="M  64,32 64,32" class="wire"/></g><g><path d="m  64,32 16,0" class="wire"/></g><g transform="translate(96,32)"><title>~</title><path class="gate" d="M -11,-6 -11,6 0,0 z m -5,6 5,0 M 4,0 C 4,1.1 3.1,2 2,2 0.9,2 0,1.1 0,0 c 0,-1.1 0.9,-2 2,-2 1.1,0 2,0.9 2,2 z"/></g></g><g><g transform="translate(64,32)"><title>n_C</title><path d="M 2,0 a 2,2 0 1 1 -4,0 2,2 0 1 1 4,0 z"/><text><tspan x="-4" y="4" class="pinname">n_C</tspan></text></g></g></g></g></g><g><g><g transform="translate(16,0)"><path d="M  128,56 128,56" class="wire"/></g><g><path d="m  128,56 16,0" class="wire"/></g><g transform="translate(160,56)"><title>d_0</title><text><tspan x="-14" y="4" class="wirename">d_0</tspan></text></g></g><g><g><g transform="translate(16,0)"><path d="M  96,48 96,64" class="wire"/></g><g><path d="m  96,48 16,0" class="wire"/></g><g><path d="m  96,64 16,0" class="wire"/></g><g transform="translate(128,56)"><title>|</title><path class="gate" d="m -18,-10 4,0 c 6,0 12,5 14,10 -2,5 -8,10 -14,10 l -4,0 c 2.5,-5 2.5,-15 0,-20 z"/></g></g><g><g><g transform="translate(16,0)"><path d="M  64,48 64,48" class="wire"/></g><g><path d="m  64,48 16,0" class="wire"/></g><g transform="translate(96,48)"><title>~</title><path class="gate" d="M -11,-6 -11,6 0,0 z m -5,6 5,0 M 4,0 C 4,1.1 3.1,2 2,2 0.9,2 0,1.1 0,0 c 0,-1.1 0.9,-2 2,-2 1.1,0 2,0.9 2,2 z"/></g></g><g><g transform="translate(64,48)"><title>n_B</title><path d="M 2,0 a 2,2 0 1 1 -4,0 2,2 0 1 1 4,0 z"/><text><tspan x="-4" y="4" class="pinname">n_B</tspan></text></g></g></g><g><g><g transform="translate(16,0)"><path d="M  64,64 64,64" class="wire"/></g><g><path d="m  64,64 16,0" class="wire"/></g><g transform="translate(96,64)"><title>~</title><path class="gate" d="M -11,-6 -11,6 0,0 z m -5,6 5,0 M 4,0 C 4,1.1 3.1,2 2,2 0.9,2 0,1.1 0,0 c 0,-1.1 0.9,-2 2,-2 1.1,0 2,0.9 2,2 z"/></g></g><g><g transform="translate(64,64)"><title>n_D</title><path d="M 2,0 a 2,2 0 1 1 -4,0 2,2 0 1 1 4,0 z"/><text><tspan x="-4" y="4" class="pinname">n_D</tspan></text></g></g></g></g></g></g></g></svg>