<?xml version="1.0" standalone="no"?>
<!DOCTYPE svg PUBLIC "-//W3C//DTD SVG 1.1//EN" "http://www.w3.org/Graphics/SVG/1.1/DTD/svg11.dtd">
<!-- Created with WaveDrom -->
<svg xmlns="http://www.w3.org/2000/svg" xmlns:xlink="http://www.w3.org/1999/xlink" id="svgcontent_0" viewBox="0 0 225 145" width="225" height="145" class="WaveDrom"><style>.pinname {font-size:12px; font-style:normal; font-variant:normal; font-weight:500; font-stretch:normal; text-align:center; text-anchor:end; font-family:Helvetica} .wirename {font-size:12px; font-style:normal; font-variant:normal; font-weight:500; font-stretch:normal; text-align:center; text-anchor:start; font-family:Helvetica} .wirename:hover {fill:blue} .gate {color:#000; fill:#ffc; fill-opacity: 1;stroke:#000; stroke-width:1; stroke-opacity:1} .gate:hover {fill:red !important; } .wire {fill:none; stroke:#000; stroke-width:1; stroke-opacity:1} .grid {fill:#fff; fill-opacity:1; stroke:none}</style><g transform="translate(0.5, 0.5)"><g><rect height="1" width="1" x="-0.5" y="-0.5" class="grid"/><rect height="1" width="1" x="-0.5" y="7.5" class="grid"/><rect height="1" width="1" x="-0.5" y="15.5" class="grid"/><rect height="1" width="1" x="-0.5" y="23.5" class="grid"/><rect height="1" width="1" x="-0.5" y="31.5" class="grid"/><rect height="1" width="1" x="-0.5" y="39.5" class="grid"/><rect height="1" width="1" x="-0.5" y="47.5" class="grid"/><rect height="1" width="1" x="-0.5" y="55.5" class="grid"/><rect height="1" width="1" x="-0.5" y="63.5" class="grid"/><rect height="1" width="1" x="-0.5" y="71.5" class="grid"/><rect height="1" width="1" x="-0.5" y="79.5" class="grid"/><rect height="1" width="1" x="-0.5" y="87.5" class="grid"/><rect height="1" width="1" x="-0.5" y="95.5" class="grid"/><rect height="1" width="1" x="-0.5" y="103.5" class="grid"/><rect height="1" width="1" x="-0.5" y="111.5" class="grid"/><rect height="1" width="1" x="-0.5" y="119.5" class="grid"/><rect height="1" width="1" x="-0.5" y="127.5" class="grid"/><rect height="1" width="1" x="-0.5" y="135.5" class="grid"/><rect height="1" width="1" x="-0.5" y="143.5" class="grid"/><rect height="1" width="1" x="-0.5" y="151.5" class="grid"/><rect height="1" width="1" x="7.5" y="-0.5" class="grid"/><rect height="1" width="1" x="7.5" y="7.5" class="grid"/><rect height="1" width="1" x="7.5" y="15.5" class="grid"/><rect height="1" width="1" x="7.5" y="23.5" class="grid"/><rect height="1" width="1" x="7.5" y="31.5" class="grid"/><rect height="1" width="1" x="7.5" y="39.5" class="grid"/><rect height="1" width="1" x="7.5" y="47.5" class="grid"/><rect height="1" width="1" x="7.5" y="55.5" class="grid"/><rect height="1" width="1" x="7.5" y="63.5" class="grid"/><rect height="1" width="1" x="7.5" y="71.5" class="grid"/><rect height="1" width="1" x="7.5" y="79.5" class="grid"/><rect height="1" width="1" x="7.5" y="87.5" class="grid"/><rect height="1" width="1" x="7.5" y="95.5" class="grid"/><rect height="1" width="1" x="7.5" y="103.5" class="grid"/><rect height="1" width="1" x="7.5" y="111.5" class="grid"/><rect height="1" width="1" x="7.5" y="119.5" class="grid"/><rect height="1" width="1" x="7.5" y="127.5" class="grid"/><rect height="1" width="1" x="7.5" y="135.5" class="grid"/><rect height="1" width="1" x="7.5" y="143.5" class="grid"/><rect height="1" width="1" x="7.5" y="151.5" class="grid"/><rect height="1" width="1" x="15.5" y="-0.5" class="grid"/><rect height="1" width="1" x="15.5" y="7.5" class="grid"/><rect height="1" width="1" x="15.5" y="15.5" class="grid"/><rect height="1" width="1" x="15.5" y="23.5" class="grid"/><rect height="1" width="1" x="15.5" y="31.5" class="grid"/><rect height="1" width="1" x="15.5" y="39.5" class="grid"/><rect height="1" width="1" x="15.5" y="47.5" class="grid"/><rect height="1" width="1" x="15.5" y="55.5" class="grid"/><rect height="1" width="1" x="15.5" y="63.5" class="grid"/><rect height="1" width="1" x="15.5" y="71.5" class="grid"/><rect height="1" width="1" x="15.5" y="79.5" class="grid"/><rect height="1" width="1" x="15.5" y="87.5" class="grid"/><rect height="1" width="1" x="15.5" y="95.5" class="grid"/><rect height="1" width="1" x="15.5" y="103.5" class="grid"/><rect height="1" width="1" x="15.5" y="111.5" class="grid"/><rect height="1" width="1" x="15.5" y="119.5" class="grid"/><rect height="1" width="1" x="15.5" y="127.5" class="grid"/><rect height="1" width="1" x="15.5" y="135.5" class="grid"/><rect height="1" width="1" x="15.5" y="143.5" class="grid"/><rect height="1" width="1" x="15.5" y="151.5" class="grid"/><rect height="1" width="1" x="23.5" y="-0.5" class="grid"/><rect height="1" width="1" x="23.5" y="7.5" class="grid"/><rect height="1" width="1" x="23.5" y="15.5" class="grid"/><rect height="1" width="1" x="23.5" y="23.5" class="grid"/><rect height="1" width="1" x="23.5" y="31.5" class="grid"/><rect height="1" width="1" x="23.5" y="39.5" class="grid"/><rect height="1" width="1" x="23.5" y="47.5" class="grid"/><rect height="1" width="1" x="23.5" y="55.5" class="grid"/><rect height="1" width="1" x="23.5" y="63.5" class="grid"/><rect height="1" width="1" x="23.5" y="71.5" class="grid"/><rect height="1" width="1" x="23.5" y="79.5" class="grid"/><rect height="1" width="1" x="23.5" y="87.5" class="grid"/><rect height="1" width="1" x="23.5" y="95.5" class="grid"/><rect height="1" width="1" x="23.5" y="103.5" class="grid"/><rect height="1" width="1" x="23.5" y="111.5" class="grid"/><rect height="1" width="1" x="23.5" y="119.5" class="grid"/><rect height="1" width="1" x="23.5" y="127.5" class="grid"/><rect height="1" width="1" x="23.5" y="135.5" class="grid"/><rect height="1" width="1" x="23.5" y="143.5" class="grid"/><rect height="1" width="1" x="23.5" y="151.5" class="grid"/><rect height="1" width="1" x="31.5" y="-0.5" class="grid"/><rect height="1" width="1" x="31.5" y="7.5" class="grid"/><rect height="1" width="1" x="31.5" y="15.5" class="grid"/><rect height="1" width="1" x="31.5" y="23.5" class="grid"/><rect height="1" width="1" x="31.5" y="31.5" class="grid"/><rect height="1" width="1" x="31.5" y="39.5" class="grid"/><rect height="1" width="1" x="31.5" y="47.5" class="grid"/><rect height="1" width="1" x="31.5" y="55.5" class="grid"/><rect height="1" width="1" x="31.5" y="63.5" class="grid"/><rect height="1" width="1" x="31.5" y="71.5" class="grid"/><rect height="1" width="1" x="31.5" y="79.5" class="grid"/><rect height="1" width="1" x="31.5" y="87.5" class="grid"/><rect height="1" width="1" x="31.5" y="95.5" class="grid"/><rect height="1" width="1" x="31.5" y="103.5" class="grid"/><rect height="1" width="1" x="31.5" y="111.5" class="grid"/><rect height="1" width="1" x="31.5" y="119.5" class="grid"/><rect height="1" width="1" x="31.5" y="127.5" class="grid"/><rect height="1" width="1" x="31.5" y="135.5" class="grid"/><rect height="1" width="1" x="31.5" y="143.5" class="grid"/><rect height="1" width="1" x="31.5" y="151.5" class="grid"/><rect height="1" width="1" x="39.5" y="-0.5" class="grid"/><rect height="1" width="1" x="39.5" y="7.5" class="grid"/><rect height="1" width="1" x="39.5" y="15.5" class="grid"/><rect height="1" width="1" x="39.5" y="23.5" class="grid"/><rect height="1" width="1" x="39.5" y="31.5" class="grid"/><rect height="1" width="1" x="39.5" y="39.5" class="grid"/><rect height="1" width="1" x="39.5" y="47.5" class="grid"/><rect height="1" width="1" x="39.5" y="55.5" class="grid"/><rect height="1" width="1" x="39.5" y="63.5" class="grid"/><rect height="1" width="1" x="39.5" y="71.5" class="grid"/><rect height="1" width="1" x="39.5" y="79.5" class="grid"/><rect height="1" width="1" x="39.5" y="87.5" class="grid"/><rect height="1" width="1" x="39.5" y="95.5" class="grid"/><rect height="1" width="1" x="39.5" y="103.5" class="grid"/><rect height="1" width="1" x="39.5" y="111.5" class="grid"/><rect height="1" width="1" x="39.5" y="119.5" class="grid"/><rect height="1" width="1" x="39.5" y="127.5" class="grid"/><rect height="1" width="1" x="39.5" y="135.5" class="grid"/><rect height="1" width="1" x="39.5" y="143.5" class="grid"/><rect height="1" width="1" x="39.5" y="151.5" class="grid"/><rect height="1" width="1" x="47.5" y="-0.5" class="grid"/><rect height="1" width="1" x="47.5" y="7.5" class="grid"/><rect height="1" width="1" x="47.5" y="15.5" class="grid"/><rect height="1" width="1" x="47.5" y="23.5" class="grid"/><rect height="1" width="1" x="47.5" y="31.5" class="grid"/><rect height="1" width="1" x="47.5" y="39.5" class="grid"/><rect height="1" width="1" x="47.5" y="47.5" class="grid"/><rect height="1" width="1" x="47.5" y="55.5" class="grid"/><rect height="1" width="1" x="47.5" y="63.5" class="grid"/><rect height="1" width="1" x="47.5" y="71.5" class="grid"/><rect height="1" width="1" x="47.5" y="79.5" class="grid"/><rect height="1" width="1" x="47.5" y="87.5" class="grid"/><rect height="1" width="1" x="47.5" y="95.5" class="grid"/><rect height="1" width="1" x="47.5" y="103.5" class="grid"/><rect height="1" width="1" x="47.5" y="111.5" class="grid"/><rect height="1" width="1" x="47.5" y="119.5" class="grid"/><rect height="1" width="1" x="47.5" y="127.5" class="grid"/><rect height="1" width="1" x="47.5" y="135.5" class="grid"/><rect height="1" width="1" x="47.5" y="143.5" class="grid"/><rect height="1" width="1" x="47.5" y="151.5" class="grid"/><rect height="1" width="1" x="55.5" y="-0.5" class="grid"/><rect height="1" width="1" x="55.5" y="7.5" class="grid"/><rect height="1" width="1" x="55.5" y="15.5" class="grid"/><rect height="1" width="1" x="55.5" y="23.5" class="grid"/><rect height="1" width="1" x="55.5" y="31.5" class="grid"/><rect height="1" width="1" x="55.5" y="39.5" class="grid"/><rect height="1" width="1" x="55.5" y="47.5" class="grid"/><rect height="1" width="1" x="55.5" y="55.5" class="grid"/><rect height="1" width="1" x="55.5" y="63.5" class="grid"/><rect height="1" width="1" x="55.5" y="71.5" class="grid"/><rect height="1" width="1" x="55.5" y="79.5" class="grid"/><rect height="1" width="1" x="55.5" y="87.5" class="grid"/><rect height="1" width="1" x="55.5" y="95.5" class="grid"/><rect height="1" width="1" x="55.5" y="103.5" class="grid"/><rect height="1" width="1" x="55.5" y="111.5" class="grid"/><rect height="1" width="1" x="55.5" y="119.5" class="grid"/><rect height="1" width="1" x="55.5" y="127.5" class="grid"/><rect height="1" width="1" x="55.5" y="135.5" class="grid"/><rect height="1" width="1" x="55.5" y="143.5" class="grid"/><rect height="1" width="1" x="55.5" y="151.5" class="grid"/><rect height="1" width="1" x="63.5" y="-0.5" class="grid"/><rect height="1" width="1" x="63.5" y="7.5" class="grid"/><rect height="1" width="1" x="63.5" y="15.5" class="grid"/><rect height="1" width="1" x="63.5" y="23.5" class="grid"/><rect height="1" width="1" x="63.5" y="31.5" class="grid"/><rect height="1" width="1" x="63.5" y="39.5" class="grid"/><rect height="1" width="1" x="63.5" y="47.5" class="grid"/><rect height="1" width="1" x="63.5" y="55.5" class="grid"/><rect height="1" width="1" x="63.5" y="63.5" class="grid"/><rect height="1" width="1" x="63.5" y="71.5" class="grid"/><rect height="1" width="1" x="63.5" y="79.5" class="grid"/><rect height="1" width="1" x="63.5" y="87.5" class="grid"/><rect height="1" width="1" x="63.5" y="95.5" class="grid"/><rect height="1" width="1" x="63.5" y="103.5" class="grid"/><rect height="1" width="1" x="63.5" y="111.5" class="grid"/><rect height="1" width="1" x="63.5" y="119.5" class="grid"/><rect height="1" width="1" x="63.5" y="127.5" class="grid"/><rect height="1" width="1" x="63.5" y="135.5" class="grid"/><rect height="1" width="1" x="63.5" y="143.5" class="grid"/><rect height="1" width="1" x="63.5" y="151.5" class="grid"/><rect height="1" width="1" x="71.5" y="-0.5" class="grid"/><rect height="1" width="1" x="71.5" y="7.5" class="grid"/><rect height="1" width="1" x="71.5" y="15.5" class="grid"/><rect height="1" width="1" x="71.5" y="23.5" class="grid"/><rect height="1" width="1" x="71.5" y="31.5" class="grid"/><rect height="1" width="1" x="71.5" y="39.5" class="grid"/><rect height="1" width="1" x="71.5" y="47.5" class="grid"/><rect height="1" width="1" x="71.5" y="55.5" class="grid"/><rect height="1" width="1" x="71.5" y="63.5" class="grid"/><rect height="1" width="1" x="71.5" y="71.5" class="grid"/><rect height="1" width="1" x="71.5" y="79.5" class="grid"/><rect height="1" width="1" x="71.5" y="87.5" class="grid"/><rect height="1" width="1" x="71.5" y="95.5" class="grid"/><rect height="1" width="1" x="71.5" y="103.5" class="grid"/><rect height="1" width="1" x="71.5" y="111.5" class="grid"/><rect height="1" width="1" x="71.5" y="119.5" class="grid"/><rect height="1" width="1" x="71.5" y="127.5" class="grid"/><rect height="1" width="1" x="71.5" y="135.5" class="grid"/><rect height="1" width="1" x="71.5" y="143.5" class="grid"/><rect height="1" width="1" x="71.5" y="151.5" class="grid"/><rect height="1" width="1" x="79.5" y="-0.5" class="grid"/><rect height="1" width="1" x="79.5" y="7.5" class="grid"/><rect height="1" width="1" x="79.5" y="15.5" class="grid"/><rect height="1" width="1" x="79.5" y="23.5" class="grid"/><rect height="1" width="1" x="79.5" y="31.5" class="grid"/><rect height="1" width="1" x="79.5" y="39.5" class="grid"/><rect height="1" width="1" x="79.5" y="47.5" class="grid"/><rect height="1" width="1" x="79.5" y="55.5" class="grid"/><rect height="1" width="1" x="79.5" y="63.5" class="grid"/><rect height="1" width="1" x="79.5" y="71.5" class="grid"/><rect height="1" width="1" x="79.5" y="79.5" class="grid"/><rect height="1" width="1" x="79.5" y="87.5" class="grid"/><rect height="1" width="1" x="79.5" y="95.5" class="grid"/><rect height="1" width="1" x="79.5" y="103.5" class="grid"/><rect height="1" width="1" x="79.5" y="111.5" class="grid"/><rect height="1" width="1" x="79.5" y="119.5" class="grid"/><rect height="1" width="1" x="79.5" y="127.5" class="grid"/><rect height="1" width="1" x="79.5" y="135.5" class="grid"/><rect height="1" width="1" x="79.5" y="143.5" class="grid"/><rect height="1" width="1" x="79.5" y="151.5" class="grid"/><rect height="1" width="1" x="87.5" y="-0.5" class="grid"/><rect height="1" width="1" x="87.5" y="7.5" class="grid"/><rect height="1" width="1" x="87.5" y="15.5" class="grid"/><rect height="1" width="1" x="87.5" y="23.5" class="grid"/><rect height="1" width="1" x="87.5" y="31.5" class="grid"/><rect height="1" width="1" x="87.5" y="39.5" class="grid"/><rect height="1" width="1" x="87.5" y="47.5" class="grid"/><rect height="1" width="1" x="87.5" y="55.5" class="grid"/><rect height="1" width="1" x="87.5" y="63.5" class="grid"/><rect height="1" width="1" x="87.5" y="71.5" class="grid"/><rect height="1" width="1" x="87.5" y="79.5" class="grid"/><rect height="1" width="1" x="87.5" y="87.5" class="grid"/><rect height="1" width="1" x="87.5" y="95.5" class="grid"/><rect height="1" width="1" x="87.5" y="103.5" class="grid"/><rect height="1" width="1" x="87.5" y="111.5" class="grid"/><rect height="1" width="1" x="87.5" y="119.5" class="grid"/><rect height="1" width="1" x="87.5" y="127.5" class="grid"/><rect height="1" width="1" x="87.5" y="135.5" class="grid"/><rect height="1" width="1" x="87.5" y="143.5" class="grid"/><rect height="1" width="1" x="87.5" y="151.5" class="grid"/><rect height="1" width="1" x="95.5" y="-0.5" class="grid"/><rect height="1" width="1" x="95.5" y="7.5" class="grid"/><rect height="1" width="1" x="95.5" y="15.5" class="grid"/><rect height="1" width="1" x="95.5" y="23.5" class="grid"/><rect height="1" width="1" x="95.5" y="31.5" class="grid"/><rect height="1" width="1" x="95.5" y="39.5" class="grid"/><rect height="1" width="1" x="95.5" y="47.5" class="grid"/><rect height="1" width="1" x="95.5" y="55.5" class="grid"/><rect height="1" width="1" x="95.5" y="63.5" class="grid"/><rect height="1" width="1" x="95.5" y="71.5" class="grid"/><rect height="1" width="1" x="95.5" y="79.5" class="grid"/><rect height="1" width="1" x="95.5" y="87.5" class="grid"/><rect height="1" width="1" x="95.5" y="95.5" class="grid"/><rect height="1" width="1" x="95.5" y="103.5" class="grid"/><rect height="1" width="1" x="95.5" y="111.5" class="grid"/><rect height="1" width="1" x="95.5" y="119.5" class="grid"/><rect height="1" width="1" x="95.5" y="127.5" class="grid"/><rect height="1" width="1" x="95.5" y="135.5" class="grid"/><rect height="1" width="1" x="95.5" y="143.5" class="grid"/><rect height="1" width="1" x="95.5" y="151.5" class="grid"/><rect height="1" width="1" x="103.5" y="-0.5" class="grid"/><rect height="1" width="1" x="103.5" y="7.5" class="grid"/><rect height="1" width="1" x="103.5" y="15.5" class="grid"/><rect height="1" width="1" x="103.5" y="23.5" class="grid"/><rect height="1" width="1" x="103.5" y="31.5" class="grid"/><rect height="1" width="1" x="103.5" y="39.5" class="grid"/><rect height="1" width="1" x="103.5" y="47.5" class="grid"/><rect height="1" width="1" x="103.5" y="55.5" class="grid"/><rect height="1" width="1" x="103.5" y="63.5" class="grid"/><rect height="1" width="1" x="103.5" y="71.5" class="grid"/><rect height="1" width="1" x="103.5" y="79.5" class="grid"/><rect height="1" width="1" x="103.5" y="87.5" class="grid"/><rect height="1" width="1" x="103.5" y="95.5" class="grid"/><rect height="1" width="1" x="103.5" y="103.5" class="grid"/><rect height="1" width="1" x="103.5" y="111.5" class="grid"/><rect height="1" width="1" x="103.5" y="119.5" class="grid"/><rect height="1" width="1" x="103.5" y="127.5" class="grid"/><rect height="1" width="1" x="103.5" y="135.5" class="grid"/><rect height="1" width="1" x="103.5" y="143.5" class="grid"/><rect height="1" width="1" x="103.5" y="151.5" class="grid"/><rect height="1" width="1" x="111.5" y="-0.5" class="grid"/><rect height="1" width="1" x="111.5" y="7.5" class="grid"/><rect height="1" width="1" x="111.5" y="15.5" class="grid"/><rect height="1" width="1" x="111.5" y="23.5" class="grid"/><rect height="1" width="1" x="111.5" y="31.5" class="grid"/><rect height="1" width="1" x="111.5" y="39.5" class="grid"/><rect height="1" width="1" x="111.5" y="47.5" class="grid"/><rect height="1" width="1" x="111.5" y="55.5" class="grid"/><rect height="1" width="1" x="111.5" y="63.5" class="grid"/><rect height="1" width="1" x="111.5" y="71.5" class="grid"/><rect height="1" width="1" x="111.5" y="79.5" class="grid"/><rect height="1" width="1" x="111.5" y="87.5" class="grid"/><rect height="1" width="1" x="111.5" y="95.5" class="grid"/><rect height="1" width="1" x="111.5" y="103.5" class="grid"/><rect height="1" width="1" x="111.5" y="111.5" class="grid"/><rect height="1" width="1" x="111.5" y="119.5" class="grid"/><rect height="1" width="1" x="111.5" y="127.5" class="grid"/><rect height="1" width="1" x="111.5" y="135.5" class="grid"/><rect height="1" width="1" x="111.5" y="143.5" class="grid"/><rect height="1" width="1" x="111.5" y="151.5" class="grid"/><rect height="1" width="1" x="119.5" y="-0.5" class="grid"/><rect height="1" width="1" x="119.5" y="7.5" class="grid"/><rect height="1" width="1" x="119.5" y="15.5" class="grid"/><rect height="1" width="1" x="119.5" y="23.5" class="grid"/><rect height="1" width="1" x="119.5" y="31.5" class="grid"/><rect height="1" width="1" x="119.5" y="39.5" class="grid"/><rect height="1" width="1" x="119.5" y="47.5" class="grid"/><rect height="1" width="1" x="119.5" y="55.5" class="grid"/><rect height="1" width="1" x="119.5" y="63.5" class="grid"/><rect height="1" width="1" x="119.5" y="71.5" class="grid"/><rect height="1" width="1" x="119.5" y="79.5" class="grid"/><rect height="1" width="1" x="119.5" y="87.5" class="grid"/><rect height="1" width="1" x="119.5" y="95.5" class="grid"/><rect height="1" width="1" x="119.5" y="103.5" class="grid"/><rect height="1" width="1" x="119.5" y="111.5" class="grid"/><rect height="1" width="1" x="119.5" y="119.5" class="grid"/><rect height="1" width="1" x="119.5" y="127.5" class="grid"/><rect height="1" width="1" x="119.5" y="135.5" class="grid"/><rect height="1" width="1" x="119.5" y="143.5" class="grid"/><rect height="1" width="1" x="119.5" y="151.5" class="grid"/><rect height="1" width="1" x="127.5" y="-0.5" class="grid"/><rect height="1" width="1" x="127.5" y="7.5" class="grid"/><rect height="1" width="1" x="127.5" y="15.5" class="grid"/><rect height="1" width="1" x="127.5" y="23.5" class="grid"/><rect height="1" width="1" x="127.5" y="31.5" class="grid"/><rect height="1" width="1" x="127.5" y="39.5" class="grid"/><rect height="1" width="1" x="127.5" y="47.5" class="grid"/><rect height="1" width="1" x="127.5" y="55.5" class="grid"/><rect height="1" width="1" x="127.5" y="63.5" class="grid"/><rect height="1" width="1" x="127.5" y="71.5" class="grid"/><rect height="1" width="1" x="127.5" y="79.5" class="grid"/><rect height="1" width="1" x="127.5" y="87.5" class="grid"/><rect height="1" width="1" x="127.5" y="95.5" class="grid"/><rect height="1" width="1" x="127.5" y="103.5" class="grid"/><rect height="1" width="1" x="127.5" y="111.5" class="grid"/><rect height="1" width="1" x="127.5" y="119.5" class="grid"/><rect height="1" width="1" x="127.5" y="127.5" class="grid"/><rect height="1" width="1" x="127.5" y="135.5" class="grid"/><rect height="1" width="1" x="127.5" y="143.5" class="grid"/><rect height="1" width="1" x="127.5" y="151.5" class="grid"/><rect height="1" width="1" x="135.5" y="-0.5" class="grid"/><rect height="1" width="1" x="135.5" y="7.5" class="grid"/><rect height="1" width="1" x="135.5" y="15.5" class="grid"/><rect height="1" width="1" x="135.5" y="23.5" class="grid"/><rect height="1" width="1" x="135.5" y="31.5" class="grid"/><rect height="1" width="1" x="135.5" y="39.5" class="grid"/><rect height="1" width="1" x="135.5" y="47.5" class="grid"/><rect height="1" width="1" x="135.5" y="55.5" class="grid"/><rect height="1" width="1" x="135.5" y="63.5" class="grid"/><rect height="1" width="1" x="135.5" y="71.5" class="grid"/><rect height="1" width="1" x="135.5" y="79.5" class="grid"/><rect height="1" width="1" x="135.5" y="87.5" class="grid"/><rect height="1" width="1" x="135.5" y="95.5" class="grid"/><rect height="1" width="1" x="135.5" y="103.5" class="grid"/><rect height="1" width="1" x="135.5" y="111.5" class="grid"/><rect height="1" width="1" x="135.5" y="119.5" class="grid"/><rect height="1" width="1" x="135.5" y="127.5" class="grid"/><rect height="1" width="1" x="135.5" y="135.5" class="grid"/><rect height="1" width="1" x="135.5" y="143.5" class="grid"/><rect height="1" width="1" x="135.5" y="151.5" class="grid"/><rect height="1" width="1" x="143.5" y="-0.5" class="grid"/><rect height="1" width="1" x="143.5" y="7.5" class="grid"/><rect height="1" width="1" x="143.5" y="15.5" class="grid"/><rect height="1" width="1" x="143.5" y="23.5" class="grid"/><rect height="1" width="1" x="143.5" y="31.5" class="grid"/><rect height="1" width="1" x="143.5" y="39.5" class="grid"/><rect height="1" width="1" x="143.5" y="47.5" class="grid"/><rect height="1" width="1" x="143.5" y="55.5" class="grid"/><rect height="1" width="1" x="143.5" y="63.5" class="grid"/><rect height="1" width="1" x="143.5" y="71.5" class="grid"/><rect height="1" width="1" x="143.5" y="79.5" class="grid"/><rect height="1" width="1" x="143.5" y="87.5" class="grid"/><rect height="1" width="1" x="143.5" y="95.5" class="grid"/><rect height="1" width="1" x="143.5" y="103.5" class="grid"/><rect height="1" width="1" x="143.5" y="111.5" class="grid"/><rect height="1" width="1" x="143.5" y="119.5" class="grid"/><rect height="1" width="1" x="143.5" y="127.5" class="grid"/><rect height="1" width="1" x="143.5" y="135.5" class="grid"/><rect height="1" width="1" x="143.5" y="143.5" class="grid"/><rect height="1" width="1" x="143.5" y="151.5" class="grid"/><rect height="1" width="1" x="151.5" y="-0.5" class="grid"/><rect height="1" width="1" x="151.5" y="7.5" class="grid"/><rect height="1" width="1" x="151.5" y="15.5" class="grid"/><rect height="1" width="1" x="151.5" y="23.5" class="grid"/><rect height="1" width="1" x="151.5" y="31.5" class="grid"/><rect height="1" width="1" x="151.5" y="39.5" class="grid"/><rect height="1" width="1" x="151.5" y="47.5" class="grid"/><rect height="1" width="1" x="151.5" y="55.5" class="grid"/><rect height="1" width="1" x="151.5" y="63.5" class="grid"/><rect height="1" width="1" x="151.5" y="71.5" class="grid"/><rect height="1" width="1" x="151.5" y="79.5" class="grid"/><rect height="1" width="1" x="151.5" y="87.5" class="grid"/><rect height="1" width="1" x="151.5" y="95.5" class="grid"/><rect height="1" width="1" x="151.5" y="103.5" class="grid"/><rect height="1" width="1" x="151.5" y="111.5" class="grid"/><rect height="1" width="1" x="151.5" y="119.5" class="grid"/><rect height="1" width="1" x="151.5" y="127.5" class="grid"/><rect height="1" width="1" x="151.5" y="135.5" class="grid"/><rect height="1" width="1" x="151.5" y="143.5" class="grid"/><rect height="1" width="1" x="151.5" y="151.5" class="grid"/><rect height="1" width="1" x="159.5" y="-0.5" class="grid"/><rect height="1" width="1" x="159.5" y="7.5" class="grid"/><rect height="1" width="1" x="159.5" y="15.5" class="grid"/><rect height="1" width="1" x="159.5" y="23.5" class="grid"/><rect height="1" width="1" x="159.5" y="31.5" class="grid"/><rect height="1" width="1" x="159.5" y="39.5" class="grid"/><rect height="1" width="1" x="159.5" y="47.5" class="grid"/><rect height="1" width="1" x="159.5" y="55.5" class="grid"/><rect height="1" width="1" x="159.5" y="63.5" class="grid"/><rect height="1" width="1" x="159.5" y="71.5" class="grid"/><rect height="1" width="1" x="159.5" y="79.5" class="grid"/><rect height="1" width="1" x="159.5" y="87.5" class="grid"/><rect height="1" width="1" x="159.5" y="95.5" class="grid"/><rect height="1" width="1" x="159.5" y="103.5" class="grid"/><rect height="1" width="1" x="159.5" y="111.5" class="grid"/><rect height="1" width="1" x="159.5" y="119.5" class="grid"/><rect height="1" width="1" x="159.5" y="127.5" class="grid"/><rect height="1" width="1" x="159.5" y="135.5" class="grid"/><rect height="1" width="1" x="159.5" y="143.5" class="grid"/><rect height="1" width="1" x="159.5" y="151.5" class="grid"/><rect height="1" width="1" x="167.5" y="-0.5" class="grid"/><rect height="1" width="1" x="167.5" y="7.5" class="grid"/><rect height="1" width="1" x="167.5" y="15.5" class="grid"/><rect height="1" width="1" x="167.5" y="23.5" class="grid"/><rect height="1" width="1" x="167.5" y="31.5" class="grid"/><rect height="1" width="1" x="167.5" y="39.5" class="grid"/><rect height="1" width="1" x="167.5" y="47.5" class="grid"/><rect height="1" width="1" x="167.5" y="55.5" class="grid"/><rect height="1" width="1" x="167.5" y="63.5" class="grid"/><rect height="1" width="1" x="167.5" y="71.5" class="grid"/><rect height="1" width="1" x="167.5" y="79.5" class="grid"/><rect height="1" width="1" x="167.5" y="87.5" class="grid"/><rect height="1" width="1" x="167.5" y="95.5" class="grid"/><rect height="1" width="1" x="167.5" y="103.5" class="grid"/><rect height="1" width="1" x="167.5" y="111.5" class="grid"/><rect height="1" width="1" x="167.5" y="119.5" class="grid"/><rect height="1" width="1" x="167.5" y="127.5" class="grid"/><rect height="1" width="1" x="167.5" y="135.5" class="grid"/><rect height="1" width="1" x="167.5" y="143.5" class="grid"/><rect height="1" width="1" x="167.5" y="151.5" class="grid"/><rect height="1" width="1" x="175.5" y="-0.5" class="grid"/><rect height="1" width="1" x="175.5" y="7.5" class="grid"/><rect height="1" width="1" x="175.5" y="15.5" class="grid"/><rect height="1" width="1" x="175.5" y="23.5" class="grid"/><rect height="1" width="1" x="175.5" y="31.5" class="grid"/><rect height="1" width="1" x="175.5" y="39.5" class="grid"/><rect height="1" width="1" x="175.5" y="47.5" class="grid"/><rect height="1" width="1" x="175.5" y="55.5" class="grid"/><rect height="1" width="1" x="175.5" y="63.5" class="grid"/><rect height="1" width="1" x="175.5" y="71.5" class="grid"/><rect height="1" width="1" x="175.5" y="79.5" class="grid"/><rect height="1" width="1" x="175.5" y="87.5" class="grid"/><rect height="1" width="1" x="175.5" y="95.5" class="grid"/><rect height="1" width="1" x="175.5" y="103.5" class="grid"/><rect height="1" width="1" x="175.5" y="111.5" class="grid"/><rect height="1" width="1" x="175.5" y="119.5" class="grid"/><rect height="1" width="1" x="175.5" y="127.5" class="grid"/><rect height="1" width="1" x="175.5" y="135.5" class="grid"/><rect height="1" width="1" x="175.5" y="143.5" class="grid"/><rect height="1" width="1" x="175.5" y="151.5" class="grid"/><rect height="1" width="1" x="183.5" y="-0.5" class="grid"/><rect height="1" width="1" x="183.5" y="7.5" class="grid"/><rect height="1" width="1" x="183.5" y="15.5" class="grid"/><rect height="1" width="1" x="183.5" y="23.5" class="grid"/><rect height="1" width="1" x="183.5" y="31.5" class="grid"/><rect height="1" width="1" x="183.5" y="39.5" class="grid"/><rect height="1" width="1" x="183.5" y="47.5" class="grid"/><rect height="1" width="1" x="183.5" y="55.5" class="grid"/><rect height="1" width="1" x="183.5" y="63.5" class="grid"/><rect height="1" width="1" x="183.5" y="71.5" class="grid"/><rect height="1" width="1" x="183.5" y="79.5" class="grid"/><rect height="1" width="1" x="183.5" y="87.5" class="grid"/><rect height="1" width="1" x="183.5" y="95.5" class="grid"/><rect height="1" width="1" x="183.5" y="103.5" class="grid"/><rect height="1" width="1" x="183.5" y="111.5" class="grid"/><rect height="1" width="1" x="183.5" y="119.5" class="grid"/><rect height="1" width="1" x="183.5" y="127.5" class="grid"/><rect height="1" width="1" x="183.5" y="135.5" class="grid"/><rect height="1" width="1" x="183.5" y="143.5" class="grid"/><rect height="1" width="1" x="183.5" y="151.5" class="grid"/><rect height="1" width="1" x="191.5" y="-0.5" class="grid"/><rect height="1" width="1" x="191.5" y="7.5" class="grid"/><rect height="1" width="1" x="191.5" y="15.5" class="grid"/><rect height="1" width="1" x="191.5" y="23.5" class="grid"/><rect height="1" width="1" x="191.5" y="31.5" class="grid"/><rect height="1" width="1" x="191.5" y="39.5" class="grid"/><rect height="1" width="1" x="191.5" y="47.5" class="grid"/><rect height="1" width="1" x="191.5" y="55.5" class="grid"/><rect height="1" width="1" x="191.5" y="63.5" class="grid"/><rect height="1" width="1" x="191.5" y="71.5" class="grid"/><rect height="1" width="1" x="191.5" y="79.5" class="grid"/><rect height="1" width="1" x="191.5" y="87.5" class="grid"/><rect height="1" width="1" x="191.5" y="95.5" class="grid"/><rect height="1" width="1" x="191.5" y="103.5" class="grid"/><rect height="1" width="1" x="191.5" y="111.5" class="grid"/><rect height="1" width="1" x="191.5" y="119.5" class="grid"/><rect height="1" width="1" x="191.5" y="127.5" class="grid"/><rect height="1" width="1" x="191.5" y="135.5" class="grid"/><rect height="1" width="1" x="191.5" y="143.5" class="grid"/><rect height="1" width="1" x="191.5" y="151.5" class="grid"/><rect height="1" width="1" x="199.5" y="-0.5" class="grid"/><rect height="1" width="1" x="199.5" y="7.5" class="grid"/><rect height="1" width="1" x="199.5" y="15.5" class="grid"/><rect height="1" width="1" x="199.5" y="23.5" class="grid"/><rect height="1" width="1" x="199.5" y="31.5" class="grid"/><rect height="1" width="1" x="199.5" y="39.5" class="grid"/><rect height="1" width="1" x="199.5" y="47.5" class="grid"/><rect height="1" width="1" x="199.5" y="55.5" class="grid"/><rect height="1" width="1" x="199.5" y="63.5" class="grid"/><rect height="1" width="1" x="199.5" y="71.5" class="grid"/><rect height="1" width="1" x="199.5" y="79.5" class="grid"/><rect height="1" width="1" x="199.5" y="87.5" class="grid"/><rect height="1" width="1" x="199.5" y="95.5" class="grid"/><rect height="1" width="1" x="199.5" y="103.5" class="grid"/><rect height="1" width="1" x="199.5" y="111.5" class="grid"/><rect height="1" width="1" x="199.5" y="119.5" class="grid"/><rect height="1" width="1" x="199.5" y="127.5" class="grid"/><rect height="1" width="1" x="199.5" y="135.5" class="grid"/><rect height="1" width="1" x="199.5" y="143.5" class="grid"/><rect height="1" width="1" x="199.5" y="151.5" class="grid"/><rect height="1" width="1" x="207.5" y="-0.5" class="grid"/><rect height="1" width="1" x="207.5" y="7.5" class="grid"/><rect height="1" width="1" x="207.5" y="15.5" class="grid"/><rect height="1" width="1" x="207.5" y="23.5" class="grid"/><rect height="1" width="1" x="207.5" y="31.5" class="grid"/><rect height="1" width="1" x="207.5" y="39.5" class="grid"/><rect height="1" width="1" x="207.5" y="47.5" class="grid"/><rect height="1" width="1" x="207.5" y="55.5" class="grid"/><rect height="1" width="1" x="207.5" y="63.5" class="grid"/><rect height="1" width="1" x="207.5" y="71.5" class="grid"/><rect height="1" width="1" x="207.5" y="79.5" class="grid"/><rect height="1" width="1" x="207.5" y="87.5" class="grid"/><rect height="1" width="1" x="207.5" y="95.5" class="grid"/><rect height="1" width="1" x="207.5" y="103.5" class="grid"/><rect height="1" width="1" x="207.5" y="111.5" class="grid"/><rect height="1" width="1" x="207.5" y="119.5" class="grid"/><rect height="1" width="1" x="207.5" y="127.5" class="grid"/><rect height="1" width="1" x="207.5" y="135.5" class="grid"/><rect height="1" width="1" x="207.5" y="143.5" class="grid"/><rect height="1" width="1" x="207.5" y="151.5" class="grid"/><rect height="1" width="1" x="215.5" y="-0.5" class="grid"/><rect height="1" width="1" x="215.5" y="7.5" class="grid"/><rect height="1" width="1" x="215.5" y="15.5" class="grid"/><rect height="1" width="1" x="215.5" y="23.5" class="grid"/><rect height="1" width="1" x="215.5" y="31.5" class="grid"/><rect height="1" width="1" x="215.5" y="39.5" class="grid"/><rect height="1" width="1" x="215.5" y="47.5" class="grid"/><rect height="1" width="1" x="215.5" y="55.5" class="grid"/><rect height="1" width="1" x="215.5" y="63.5" class="grid"/><rect height="1" width="1" x="215.5" y="71.5" class="grid"/><rect height="1" width="1" x="215.5" y="79.5" class="grid"/><rect height="1" width="1" x="215.5" y="87.5" class="grid"/><rect height="1" width="1" x="215.5" y="95.5" class="grid"/><rect height="1" width="1" x="215.5" y="103.5" class="grid"/><rect height="1" width="1" x="215.5" y="111.5" class="grid"/><rect height="1" width="1" x="215.5" y="119.5" class="grid"/><rect height="1" width="1" x="215.5" y="127.5" class="grid"/><rect height="1" width="1" x="215.5" y="135.5" class="grid"/><rect height="1" width="1" x="215.5" y="143.5" class="grid"/><rect height="1" width="1" x="215.5" y="151.5" class="grid"/><rect height="1" width="1" x="223.5" y="-0.5" class="grid"/><rect height="1" width="1" x="223.5" y="7.5" class="grid"/><rect height="1" width="1" x="223.5" y="15.5" class="grid"/><rect height="1" width="1" x="223.5" y="23.5" class="grid"/><rect height="1" width="1" x="223.5" y="31.5" class="grid"/><rect height="1" width="1" x="223.5" y="39.5" class="grid"/><rect height="1" width="1" x="223.5" y="47.5" class="grid"/><rect height="1" width="1" x="223.5" y="55.5" class="grid"/><rect height="1" width="1" x="223.5" y="63.5" class="grid"/><rect height="1" width="1" x="223.5" y="71.5" class="grid"/><rect height="1" width="1" x="223.5" y="79.5" class="grid"/><rect height="1" width="1" x="223.5" y="87.5" class="grid"/><rect height="1" width="1" x="223.5" y="95.5" class="grid"/><rect height="1" width="1" x="223.5" y="103.5" class="grid"/><rect height="1" width="1" x="223.5" y="111.5" class="grid"/><rect height="1" width="1" x="223.5" y="119.5" class="grid"/><rect height="1" width="1" x="223.5" y="127.5" class="grid"/><rect height="1" width="1" x="223.5" y="135.5" class="grid"/><rect height="1" width="1" x="223.5" y="143.5" class="grid"/><rect height="1" width="1" x="223.5" y="151.5" class="grid"/></g><g><g><g><g transform="translate(16,0)"><path d="M  160,32 160,32" class="wire"/></g><g><path d="m  160,32 16,0" class="wire"/></g><g transform="translate(192,32)"><title>S</title><text><tspan x="-14" y="4" class="wirename">S</tspan></text></g></g><g><g><g transform="translate(16,0)"><path d="M  128,24 128,48" class="wire"/></g><g><path d="m  128,24 16,0" class="wire"/></g><g><path d="m  128,48 16,0" class="wire"/></g><g transform="translate(160,32)"><title>^</title><path class="gate" d="m -21,-10 c 1,3 2,6 2,10 m 0,0 c 0,4 -1,7 -2,10 m 3,-20 4,0 c 6,0 12,5 14,10 -2,5 -8,10 -14,10 l -4,0 c 1,-3 2,-6 2,-10 0,-4 -1,-7 -2,-10 z"/></g></g><g><g><g transform="translate(16,0)"><path d="M  96,16 96,32" class="wire"/></g><g><path d="m  96,16 16,0" class="wire"/></g><g><path d="m  96,32 16,0" class="wire"/></g><g transform="translate(128,24)"><title>^</title><path class="gate" d="m -21,-10 c 1,3 2,6 2,10 m 0,0 c 0,4 -1,7 -2,10 m 3,-20 4,0 c 6,0 12,5 14,10 -2,5 -8,10 -14,10 l -4,0 c 1,-3 2,-6 2,-10 0,-4 -1,-7 -2,-10 z"/></g></g><g><g transform="translate(96,16)"><title>A</title><path d="M 2,0 a 2,2 0 1 1 -4,0 2,2 0 1 1 4,0 z"/><text><tspan x="-4" y="4" class="pinname">A</tspan></text></g></g><g><g transform="translate(96,32)"><title>B</title><path d="M 2,0 a 2,2 0 1 1 -4,0 2,2 0 1 1 4,0 z"/><text><tspan x="-4" y="4" class="pinname">B</tspan></text></g></g></g><g><g transform="translate(128,48)"><title>Cin</title><path d="M 2,0 a 2,2 0 1 1 -4,0 2,2 0 1 1 4,0 z"/><text><tspan x="-4" y="4" class="pinname">Cin</tspan></text></g></g></g></g><g><g><g transform="translate(16,0)"><path d="M  160,96 160,96" class="wire"/></g><g><path d="m  160,96 16,0" class="wire"/></g><g transform="translate(192,96)"><title>Cout</title><text><tspan x="-14" y="4" class="wirename">Cout</tspan></text></g></g><g><g><g transform="translate(16,0)"><path d="M  128,72 128,112" class="wire"/></g><g><path d="m  128,72 16,0" class="wire"/></g><g><path d="m  128,112 16,0" class="wire"/></g><g transform="translate(160,96)"><title>|</title><path class="gate" d="m -18,-10 4,0 c 6,0 12,5 14,10 -2,5 -8,10 -14,10 l -4,0 c 2.5,-5 2.5,-15 0,-20 z"/></g></g><g><g><g transform="translate(16,0)"><path d="M  96,64 96,80" class="wire"/></g><g><path d="m  96,64 16,0" class="wire"/></g><g><path d="m  96,80 16,0" class="wire"/></g><g transform="translate(128,72)"><title>&amp;</title><path class="gate" d="m -16,-10 5,0 c 6,0 11,4 11,10 0,6 -5,10 -11,10 l -5,0 z"/></g></g><g><g transform="translate(96,64)"><title>A</title><path d="M 2,0 a 2,2 0 1 1 -4,0 2,2 0 1 1 4,0 z"/><text><tspan x="-4" y="4" class="pinname">A</tspan></text></g></g><g><g transform="translate(96,80)"><title>B</title><path d="M 2,0 a 2,2 0 1 1 -4,0 2,2 0 1 1 4,0 z"/><text><tspan x="-4" y="4" class="pinname">B</tspan></text></g></g></g><g><g><g transform="translate(16,0)"><path d="M  96,96 96,120" class="wire"/></g><g><path d="m  96,96 16,0" class="wire"/></g><g><path d="m  96,120 16,0" class="wire"/></g><g transform="translate(128,112)"><title>&amp;</title><path class="gate" d="m -16,-10 5,0 c 6,0 11,4 11,10 0,6 -5,10 -11,10 l -5,0 z"/></g></g><g><g transform="translate(96,96)"><title>Cin</title><path d="M 2,0 a 2,2 0 1 1 -4,0 2,2 0 1 1 4,0 z"/><text><tspan x="-4" y="4" class="pinname">Cin</tspan></text></g></g><g><g><g transform="translate(16,0)"><path d="M  64,112 64,128" class="wire"/></g><g><path d="m  64,112 16,0" class="wire"/></g><g><path d="m  64,128 16,0" class="wire"/></g><g transform="translate(96,120)"><title>^</title><path class="gate" d="m -21,-10 c 1,3 2,6 2,10 m 0,0 c 0,4 -1,7 -2,10 m 3,-20 4,0 c 6,0 12,5 14,10 -2,5 -8,10 -14,10 l -4,0 c 1,-3 2,-6 2,-10 0,-4 -1,-7 -2,-10 z"/></g></g><g><g transform="translate(64,112)"><title>A</title><path d="M 2,0 a 2,2 0 1 1 -4,0 2,2 0 1 1 4,0 z"/><text><tspan x="-4" y="4" class="pinname">A</tspan></text></g></g><g><g transform="translate(64,128)"><title>B</title><path d="M 2,0 a 2,2 0 1 1 -4,0 2,2 0 1 1 4,0 z"/><text><tspan x="-4" y="4" class="pinname">B</tspan></text></g></g></g></g></g></g></g></g></svg>