<?xml version="1.0" standalone="no"?>
<!DOCTYPE svg PUBLIC "-//W3C//DTD SVG 1.1//EN" "http://www.w3.org/Graphics/SVG/1.1/DTD/svg11.dtd">
<!-- Created with WaveDrom -->
<svg id="svgcontent_0" viewBox="0 0 161 65" width="161" height="65" class="WaveDrom" xmlns="http://www.w3.org/2000/svg" xmlns:xlink="http://www.w3.org/1999/xlink"><style>.pinname {font-size:12px; font-style:normal; font-variant:normal; font-weight:500; font-stretch:normal; text-align:center; text-anchor:end; font-family:Helvetica} .wirename {font-size:12px; font-style:normal; font-variant:normal; font-weight:500; font-stretch:normal; text-align:center; text-anchor:start; font-family:Helvetica} .wirename:hover {fill:blue} .gate {color:#000; fill:#ffc; fill-opacity: 1;stroke:#000; stroke-width:1; stroke-opacity:1} .gate:hover {fill:red !important; } .wire {fill:none; stroke:#000; stroke-width:1; stroke-opacity:1} .grid {fill:#fff; fill-opacity:1; stroke:none}</style><g transform="translate(0.5, 0.5)"><g><g><g><g transform="translate(16,0)"><path d="M96,32 96,32" class="wire"/></g><g><path d="m96,32 16,0" class="wire"/></g><g transform="translate(128,32)"><title><tspan>X</tspan></title><text x="-14" y="4" class="wirename"><tspan>X</tspan></text></g></g><g><g><g transform="translate(16,0)"><path d="M64,16 64,48" class="wire"/></g><g><path d="m64,16 16,0" class="wire"/></g><g><path d="m64,32 16,0" class="wire"/></g><g><path d="m64,48 16,0" class="wire"/></g><g transform="translate(96,32)"><title><tspan>~&amp;</tspan></title><path class="gate" d="m -16,-10 5,0 c 6,0 11,4 11,10 0,6 -5,10 -11,10 l -5,0 zM 4,0 C 4,1.1 3.1,2 2,2 0.9,2 0,1.1 0,0 c 0,-1.1 0.9,-2 2,-2 1.1,0 2,0.9 2,2 z"/></g></g><g><g transform="translate(64,16)"><title><tspan>a</tspan></title><path d="M 2,0 a 2,2 0 1 1 -4,0 2,2 0 1 1 4,0 z"/><text x="-4" y="4" class="pinname"><tspan>a</tspan></text></g></g><g><g transform="translate(64,32)"><title><tspan>b</tspan></title><path d="M 2,0 a 2,2 0 1 1 -4,0 2,2 0 1 1 4,0 z"/><text x="-4" y="4" class="pinname"><tspan>b</tspan></text></g></g><g><g transform="translate(64,48)"><title><tspan>c</tspan></title><path d="M 2,0 a 2,2 0 1 1 -4,0 2,2 0 1 1 4,0 z"/><text x="-4" y="4" class="pinname"><tspan>c</tspan></text></g></g></g></g></g></g></svg>