<?xml version="1.0" encoding="utf-8" ?>
<svg baseProfile="full" height="81" id="svgcontent_0" version="1.1" viewBox="0 0 161 81" width="161" xmlns="http://www.w3.org/2000/svg" xmlns:ev="http://www.w3.org/2001/xml-events" xmlns:xlink="http://www.w3.org/1999/xlink"><defs><style type="text/css"><![CDATA[.pinname {font-size:12px; font-style:normal; font-variant:normal; font-weight:500; font-stretch:normal; text-align:center; text-anchor:end; font-family:Helvetica} .wirename {font-size:12px; font-style:normal; font-variant:normal; font-weight:500; font-stretch:normal; text-align:center; text-anchor:start; font-family:Helvetica} .wirename:hover {fill:blue} .gate {color:#000; fill:#ffc; fill-opacity: 1;stroke:#000; stroke-width:1; stroke-opacity:1} .gate:hover {fill:red !important; } .wire {fill:none; stroke:#000; stroke-width:1; stroke-opacity:1} .grid {fill:#fff; fill-opacity:1; stroke:none}]]></style></defs><g transform="translate(0.5,0.5)"><g><rect class="grid" height="1" width="1" x="0" y="0" /><rect class="grid" height="1" width="1" x="0" y="0" /><rect class="grid" height="1" width="1" x="0" y="0" /><rect class="grid" height="1" width="1" x="0" y="0" /><rect class="grid" height="1" width="1" x="0" y="0" /><rect class="grid" height="1" width="1" x="0" y="0" /><rect class="grid" height="1" width="1" x="0" y="0" /><rect class="grid" height="1" width="1" x="0" y="0" /><rect class="grid" height="1" width="1" x="0" y="0" /><rect class="grid" height="1" width="1" x="0" y="0" /><rect class="grid" height="1" width="1" x="0" y="0" /><rect class="grid" height="1" width="1" x="0" y="0" /><rect class="grid" height="1" width="1" x="0" y="0" /><rect class="grid" height="1" width="1" x="0" y="0" /><rect class="grid" height="1" width="1" x="0" y="0" /><rect class="grid" height="1" width="1" x="0" y="0" /><rect class="grid" height="1" width="1" x="0" y="0" /><rect class="grid" height="1" width="1" x="0" y="0" /><rect class="grid" height="1" width="1" x="0" y="0" /><rect class="grid" height="1" width="1" x="0" y="0" /><rect class="grid" height="1" width="1" x="0" y="0" /><rect class="grid" height="1" width="1" x="0" y="0" /><rect class="grid" height="1" width="1" x="0" y="0" /><rect class="grid" height="1" width="1" x="0" y="0" /><rect class="grid" height="1" width="1" x="0" y="0" /><rect class="grid" height="1" width="1" x="0" y="0" /><rect class="grid" height="1" width="1" x="0" y="0" /><rect class="grid" height="1" width="1" x="0" y="0" /><rect class="grid" height="1" width="1" x="0" y="0" /><rect class="grid" height="1" width="1" x="0" y="0" /><rect class="grid" height="1" width="1" x="0" y="0" /><rect class="grid" height="1" width="1" x="0" y="0" /><rect class="grid" height="1" width="1" x="0" y="0" /><rect class="grid" height="1" width="1" x="0" y="0" /><rect class="grid" height="1" width="1" x="0" y="0" /><rect class="grid" height="1" width="1" x="0" y="0" /><rect class="grid" height="1" width="1" x="0" y="0" /><rect class="grid" height="1" width="1" x="0" y="0" /><rect class="grid" height="1" width="1" x="0" y="0" /><rect class="grid" height="1" width="1" x="0" y="0" /><rect class="grid" height="1" width="1" x="0" y="0" /><rect class="grid" height="1" width="1" x="0" y="0" /><rect class="grid" height="1" width="1" x="0" y="0" /><rect class="grid" height="1" width="1" x="0" y="0" /><rect class="grid" height="1" width="1" x="0" y="0" /><rect class="grid" height="1" width="1" x="0" y="0" /><rect class="grid" height="1" width="1" x="0" y="0" /><rect class="grid" height="1" width="1" x="0" y="0" /><rect class="grid" height="1" width="1" x="0" y="0" /><rect class="grid" height="1" width="1" x="0" y="0" /><rect class="grid" height="1" width="1" x="0" y="0" /><rect class="grid" height="1" width="1" x="0" y="0" /><rect class="grid" height="1" width="1" x="0" y="0" /><rect class="grid" height="1" width="1" x="0" y="0" /><rect class="grid" height="1" width="1" x="0" y="0" /><rect class="grid" height="1" width="1" x="0" y="0" /><rect class="grid" height="1" width="1" x="0" y="0" /><rect class="grid" height="1" width="1" x="0" y="0" /><rect class="grid" height="1" width="1" x="0" y="0" /><rect class="grid" height="1" width="1" x="0" y="0" /><rect class="grid" height="1" width="1" x="0" y="0" /><rect class="grid" height="1" width="1" x="0" y="0" /><rect class="grid" height="1" width="1" x="0" y="0" /><rect class="grid" height="1" width="1" x="0" y="0" /><rect class="grid" height="1" width="1" x="0" y="0" /><rect class="grid" height="1" width="1" x="0" y="0" /><rect class="grid" height="1" width="1" x="0" y="0" /><rect class="grid" height="1" width="1" x="0" y="0" /><rect class="grid" height="1" width="1" x="0" y="0" /><rect class="grid" height="1" width="1" x="0" y="0" /><rect class="grid" height="1" width="1" x="0" y="0" /><rect class="grid" height="1" width="1" x="0" y="0" /><rect class="grid" height="1" width="1" x="0" y="0" /><rect class="grid" height="1" width="1" x="0" y="0" /><rect class="grid" height="1" width="1" x="0" y="0" /><rect class="grid" height="1" width="1" x="0" y="0" /><rect class="grid" height="1" width="1" x="0" y="0" /><rect class="grid" height="1" width="1" x="0" y="0" /><rect class="grid" height="1" width="1" x="0" y="0" /><rect class="grid" height="1" width="1" x="0" y="0" /><rect class="grid" height="1" width="1" x="0" y="0" /><rect class="grid" height="1" width="1" x="0" y="0" /><rect class="grid" height="1" width="1" x="0" y="0" /><rect class="grid" height="1" width="1" x="0" y="0" /><rect class="grid" height="1" width="1" x="0" y="0" /><rect class="grid" height="1" width="1" x="0" y="0" /><rect class="grid" height="1" width="1" x="0" y="0" /><rect class="grid" height="1" width="1" x="0" y="0" /><rect class="grid" height="1" width="1" x="0" y="0" /><rect class="grid" height="1" width="1" x="0" y="0" /><rect class="grid" height="1" width="1" x="0" y="0" /><rect class="grid" height="1" width="1" x="0" y="0" /><rect class="grid" height="1" width="1" x="0" y="0" /><rect class="grid" height="1" width="1" x="0" y="0" /><rect class="grid" height="1" width="1" x="0" y="0" /><rect class="grid" height="1" width="1" x="0" y="0" /><rect class="grid" height="1" width="1" x="0" y="0" /><rect class="grid" height="1" width="1" x="0" y="0" /><rect class="grid" height="1" width="1" x="0" y="0" /><rect class="grid" height="1" width="1" x="0" y="0" /><rect class="grid" height="1" width="1" x="0" y="0" /><rect class="grid" height="1" width="1" x="0" y="0" /><rect class="grid" height="1" width="1" x="0" y="0" /><rect class="grid" height="1" width="1" x="0" y="0" /><rect class="grid" height="1" width="1" x="0" y="0" /><rect class="grid" height="1" width="1" x="0" y="0" /><rect class="grid" height="1" width="1" x="0" y="0" /><rect class="grid" height="1" width="1" x="0" y="0" /><rect class="grid" height="1" width="1" x="0" y="0" /><rect class="grid" height="1" width="1" x="0" y="0" /><rect class="grid" height="1" width="1" x="0" y="0" /><rect class="grid" height="1" width="1" x="0" y="0" /><rect class="grid" height="1" width="1" x="0" y="0" /><rect class="grid" height="1" width="1" x="0" y="0" /><rect class="grid" height="1" width="1" x="0" y="0" /><rect class="grid" height="1" width="1" x="0" y="0" /><rect class="grid" height="1" width="1" x="0" y="0" /><rect class="grid" height="1" width="1" x="0" y="0" /><rect class="grid" height="1" width="1" x="0" y="0" /><rect class="grid" height="1" width="1" x="0" y="0" /><rect class="grid" height="1" width="1" x="0" y="0" /><rect class="grid" height="1" width="1" x="0" y="0" /><rect class="grid" height="1" width="1" x="0" y="0" /><rect class="grid" height="1" width="1" x="0" y="0" /><rect class="grid" height="1" width="1" x="0" y="0" /><rect class="grid" height="1" width="1" x="0" y="0" /><rect class="grid" height="1" width="1" x="0" y="0" /><rect class="grid" height="1" width="1" x="0" y="0" /><rect class="grid" height="1" width="1" x="0" y="0" /><rect class="grid" height="1" width="1" x="0" y="0" /><rect class="grid" height="1" width="1" x="0" y="0" /><rect class="grid" height="1" width="1" x="0" y="0" /><rect class="grid" height="1" width="1" x="0" y="0" /><rect class="grid" height="1" width="1" x="0" y="0" /><rect class="grid" height="1" width="1" x="0" y="0" /><rect class="grid" height="1" width="1" x="0" y="0" /><rect class="grid" height="1" width="1" x="0" y="0" /><rect class="grid" height="1" width="1" x="0" y="0" /><rect class="grid" height="1" width="1" x="0" y="0" /><rect class="grid" height="1" width="1" x="0" y="0" /><rect class="grid" height="1" width="1" x="0" y="0" /><rect class="grid" height="1" width="1" x="0" y="0" /><rect class="grid" height="1" width="1" x="0" y="0" /><rect class="grid" height="1" width="1" x="0" y="0" /><rect class="grid" height="1" width="1" x="0" y="0" /><rect class="grid" height="1" width="1" x="0" y="0" /><rect class="grid" height="1" width="1" x="0" y="0" /><rect class="grid" height="1" width="1" x="0" y="0" /><rect class="grid" height="1" width="1" x="0" y="0" /><rect class="grid" height="1" width="1" x="0" y="0" /><rect class="grid" height="1" width="1" x="0" y="0" /><rect class="grid" height="1" width="1" x="0" y="0" /><rect class="grid" height="1" width="1" x="0" y="0" /><rect class="grid" height="1" width="1" x="0" y="0" /><rect class="grid" height="1" width="1" x="0" y="0" /><rect class="grid" height="1" width="1" x="0" y="0" /><rect class="grid" height="1" width="1" x="0" y="0" /><rect class="grid" height="1" width="1" x="0" y="0" /><rect class="grid" height="1" width="1" x="0" y="0" /><rect class="grid" height="1" width="1" x="0" y="0" /><rect class="grid" height="1" width="1" x="0" y="0" /><rect class="grid" height="1" width="1" x="0" y="0" /><rect class="grid" height="1" width="1" x="0" y="0" /><rect class="grid" height="1" width="1" x="0" y="0" /><rect class="grid" height="1" width="1" x="0" y="0" /><rect class="grid" height="1" width="1" x="0" y="0" /><rect class="grid" height="1" width="1" x="0" y="0" /><rect class="grid" height="1" width="1" x="0" y="0" /><rect class="grid" height="1" width="1" x="0" y="0" /><rect class="grid" height="1" width="1" x="0" y="0" /><rect class="grid" height="1" width="1" x="0" y="0" /><rect class="grid" height="1" width="1" x="0" y="0" /><rect class="grid" height="1" width="1" x="0" y="0" /><rect class="grid" height="1" width="1" x="0" y="0" /><rect class="grid" height="1" width="1" x="0" y="0" /><rect class="grid" height="1" width="1" x="0" y="0" /><rect class="grid" height="1" width="1" x="0" y="0" /><rect class="grid" height="1" width="1" x="0" y="0" /><rect class="grid" height="1" width="1" x="0" y="0" /><rect class="grid" height="1" width="1" x="0" y="0" /><rect class="grid" height="1" width="1" x="0" y="0" /><rect class="grid" height="1" width="1" x="0" y="0" /><rect class="grid" height="1" width="1" x="0" y="0" /><rect class="grid" height="1" width="1" x="0" y="0" /><rect class="grid" height="1" width="1" x="0" y="0" /><rect class="grid" height="1" width="1" x="0" y="0" /><rect class="grid" height="1" width="1" x="0" y="0" /><rect class="grid" height="1" width="1" x="0" y="0" /><rect class="grid" height="1" width="1" x="0" y="0" /><rect class="grid" height="1" width="1" x="0" y="0" /><rect class="grid" height="1" width="1" x="0" y="0" /><rect class="grid" height="1" width="1" x="0" y="0" /><rect class="grid" height="1" width="1" x="0" y="0" /><rect class="grid" height="1" width="1" x="0" y="0" /><rect class="grid" height="1" width="1" x="0" y="0" /><rect class="grid" height="1" width="1" x="0" y="0" /><rect class="grid" height="1" width="1" x="0" y="0" /><rect class="grid" height="1" width="1" x="0" y="0" /><rect class="grid" height="1" width="1" x="0" y="0" /><rect class="grid" height="1" width="1" x="0" y="0" /><rect class="grid" height="1" width="1" x="0" y="0" /><rect class="grid" height="1" width="1" x="0" y="0" /><rect class="grid" height="1" width="1" x="0" y="0" /><rect class="grid" height="1" width="1" x="0" y="0" /><rect class="grid" height="1" width="1" x="0" y="0" /><rect class="grid" height="1" width="1" x="0" y="0" /><rect class="grid" height="1" width="1" x="0" y="0" /><rect class="grid" height="1" width="1" x="0" y="0" /><rect class="grid" height="1" width="1" x="0" y="0" /><rect class="grid" height="1" width="1" x="0" y="0" /><rect class="grid" height="1" width="1" x="0" y="0" /><rect class="grid" height="1" width="1" x="0" y="0" /><rect class="grid" height="1" width="1" x="0" y="0" /><rect class="grid" height="1" width="1" x="0" y="0" /><rect class="grid" height="1" width="1" x="0" y="0" /><rect class="grid" height="1" width="1" x="0" y="0" /><rect class="grid" height="1" width="1" x="0" y="0" /><rect class="grid" height="1" width="1" x="0" y="0" /><rect class="grid" height="1" width="1" x="0" y="0" /><rect class="grid" height="1" width="1" x="0" y="0" /><rect class="grid" height="1" width="1" x="0" y="0" /><rect class="grid" height="1" width="1" x="0" y="0" /><rect class="grid" height="1" width="1" x="0" y="0" /><rect class="grid" height="1" width="1" x="0" y="0" /><rect class="grid" height="1" width="1" x="0" y="0" /><rect class="grid" height="1" width="1" x="0" y="0" /><rect class="grid" height="1" width="1" x="0" y="0" /><rect class="grid" height="1" width="1" x="0" y="0" /><rect class="grid" height="1" width="1" x="0" y="0" /><rect class="grid" height="1" width="1" x="0" y="0" /><rect class="grid" height="1" width="1" x="0" y="0" /><rect class="grid" height="1" width="1" x="0" y="0" /><rect class="grid" height="1" width="1" x="0" y="0" /><rect class="grid" height="1" width="1" x="0" y="0" /><rect class="grid" height="1" width="1" x="0" y="0" /><rect class="grid" height="1" width="1" x="0" y="0" /><rect class="grid" height="1" width="1" x="0" y="0" /><rect class="grid" height="1" width="1" x="0" y="0" /><rect class="grid" height="1" width="1" x="0" y="0" /><rect class="grid" height="1" width="1" x="0" y="0" /><rect class="grid" height="1" width="1" x="0" y="0" /><rect class="grid" height="1" width="1" x="0" y="0" /><rect class="grid" height="1" width="1" x="0" y="0" /><rect class="grid" height="1" width="1" x="0" y="0" /><rect class="grid" height="1" width="1" x="0" y="0" /><rect class="grid" height="1" width="1" x="0" y="0" /><rect class="grid" height="1" width="1" x="0" y="0" /><rect class="grid" height="1" width="1" x="0" y="0" /><rect class="grid" height="1" width="1" x="0" y="0" /><rect class="grid" height="1" width="1" x="0" y="0" /><rect class="grid" height="1" width="1" x="0" y="0" /><rect class="grid" height="1" width="1" x="0" y="0" /></g><g><g><g transform="translate(16,0)"><path class="wire" d="M 96,40 96,40" /></g><path class="wire" d="m 96,40 16,0" /><g transform="translate(128,40)"><title>x</title><text><tspan class="wirename" x="-14" y="4">x</tspan></text></g></g><g><g><g transform="translate(16,0)"><path class="wire" d="M 64,16 64,64" /></g><path class="wire" d="m 64,16 16,0" /><path class="wire" d="m 64,32 16,0" /><path class="wire" d="m 64,48 16,0" /><path class="wire" d="m 64,64 16,0" /><g transform="translate(96,40)"><title>|</title><path class="gate" d="m -18,-10 4,0 c 6,0 12,5 14,10 -2,5 -8,10 -14,10 l -4,0 c 2.5,-5 2.5,-15 0,-20 z" /></g></g><g><g transform="translate(64,16)"><title>a</title><path d="M 2,0 a 2,2 0 1 1 -4,0 2,2 0 1 1 4,0 z" /><text><tspan class="pinname" x="-4" y="4">a</tspan></text></g></g><g><g transform="translate(64,32)"><title>b</title><path d="M 2,0 a 2,2 0 1 1 -4,0 2,2 0 1 1 4,0 z" /><text><tspan class="pinname" x="-4" y="4">b</tspan></text></g></g><g><g transform="translate(64,48)"><title>c</title><path d="M 2,0 a 2,2 0 1 1 -4,0 2,2 0 1 1 4,0 z" /><text><tspan class="pinname" x="-4" y="4">c</tspan></text></g></g><g><g transform="translate(64,64)"><title>d</title><path d="M 2,0 a 2,2 0 1 1 -4,0 2,2 0 1 1 4,0 z" /><text><tspan class="pinname" x="-4" y="4">d</tspan></text></g></g></g></g></g></svg>